<?xml version="1.0" encoding="UTF-8"?>
<svg id="Layer_2" data-name="Layer 2" xmlns="http://www.w3.org/2000/svg" width="99.5296" height="117.4921" viewBox="0 0 99.5296 117.4921">
  <defs>
    <style>
      .cls-1 {
        fill: #231f20;
      }
    </style>
  </defs>
  <g id="Layer_1-2" data-name="Layer 1">
    <g>
      <path class="cls-1" d="M20.1115,91.9189c4.6691-3.8442,7.317-9.9696,13.3754-12.389,1.6701,2.8195-.4858,5.3575-.13,8.1765,3.2945-1.2521,2.4489-5.5624,6.1108-6.0156,3.1992,7.1641,2.4742,14.9127,3.0175,22.4715v13.3298c2.2161-4.4446,2.6954-8.8155,1.4026-13.2332,.5302-5.7635,.8646-11.5541,1.6599-17.2808,.5258-3.786,1.1628-8.795,6.8249-1.1122-.8703-8.7264,2.1533-6.6539,5.2583-3.4934,3.5588,3.6223,6.9269,7.432,10.3778,11.1604-1.6856-5.2722-4.2924-9.8019-6.7811-14.3956-.7448-1.3747-1.8891-3.239-.4286-4.4234,1.3226-1.0727,2.9681,.4624,4.4439,.9636,.6274,.6864,1.57,1.3537,2.1995,.536,.8301-1.0782-.3007-1.3698-1.1595-1.5677-.3487-1.9115-3.6625-2.4969-2.3321-5.2059,1.8631,0,3.772-.3114,5.5377,.0593,4.9796,1.0453,9.9003,2.3708,14.8443,3.5859,4.8661,1.6501,9.6179,3.7777,15.1969,2.8501-5.1291-1.6748-10.2583-3.3495-15.3874-5.0243-6.2236-2.6136-13.0391-4.1552-18.2065-9.3259,4.0034-2.9515,8.2791-1.4108,12.2441-2.7747-3.9216-1.6512-8.4741,.2011-12.118-3.1323,4.7906-5.2277,11.9754-5.9914,17.2595-10.0324-4.9417,.4578-9.6464,1.569-14.4054,2.35-1.664,.2731-4.0494,1.2855-5.0686-.595-1.0894-2.0103,1.9999-2.7729,2.38-4.5584,.3962-.3823,1.1976-.9699,1.1244-1.1145-.5798-1.1441-1.3052-.4032-1.9832-.0086-1.6375,.2762-3.3167,2.4817-4.8353,.6049-1.0206-1.2613,.0924-3.047,.8731-4.4091,2.7092-4.7271,5.4875-9.4146,8.2363-14.1186,.3947-.5995,1.3366-1.1791,.1918-1.8535-.1287-.0758-.7307,.6513-1.1132,1.006-3.4248,3.7724-6.8286,7.5641-10.2802,11.3119-3.6087,3.9183-6.7461,5.9986-6.4936-2.1526-2.2741,.6657-1.9198,4.132-4.3072,3.3971-2.0619-.6347-1.7856-3.1499-2.0232-4.8108-.7579-5.2992-1.1132-10.656-1.6239-15.9906,.9692-4.9985,1.1081-9.9346-1.562-14.7036V14.7759c-.4792,7.0862,.0867,14.3433-3.004,20.9756-3.6636-.4646-2.6739-5.0109-6.1923-5.7762-.0896,2.7239,1.97,5.2778,.0991,8.0028-6.5046-2.9005-9.3196-10.2991-15.4797-13.5591,1.923,4.053,4.3321,7.6146,6.3796,11.3732,3.7028,6.7974,3.6127,6.8465-4.0754,7.3205,.5306,1.6816,3.7948,2.23,2.511,4.3516-1.0344,1.7094-3.4008,.685-5.1679,.5345-4.6557-.3963-9.036-2.8279-15.2033-2.2266,6.5968,3.9993,13.7964,4.5499,18.1779,10.0651-3.7985,3.0236-8.1752,1.4322-12.446,3.0418,4.4233,1.2003,8.6646-.3551,12.6608,2.9123-5.5444,5.3037-12.8646,6.7337-20.691,10.3223,7.2037,.6857,12.2198-2.4303,17.6526-2.6897,1.7127-.0818,3.9981-1.243,5.0491,.7367,1.1249,2.1192-2.2206,2.5186-2.4406,4.2663,1.9311,1.8591,4.4785-1.4502,6.5811,1.0288-1.5113,5.631-5.1422,10.2595-7.8777,15.3285-.5286,.6542-1.0572,1.3084-1.5858,1.9626,1.2386,.8049,2.1192,.4289,2.7328-.828Zm49.4516,2.6281c-.144,.1312-.425,.2871-.4066,.389,.0545,.3015,.2272,.5816,.3537,.8701,.1354-.14,.3995-.3004,.3812-.4161-.0478-.3018-.2193-.5841-.3283-.843Z"/>
      <path class="cls-1" d="M84.3327,73.085c-4.9439-1.2151-9.8646-2.5405-14.8442-3.5859-1.7657-.3707-3.6746-.0593-5.5377-.0593-1.3304,2.7091,1.9834,3.2944,2.3321,5.2059-.3467,.344-.6935,.6881-1.0402,1.0322-1.4756-.5016-3.1211-2.0367-4.4437-.9641-1.4605,1.1845-.3161,3.0487,.4286,4.4234,2.4887,4.5937,5.0956,9.1234,6.7811,14.3956-3.4509-3.7283-6.819-7.538-10.3778-11.1604-3.105-3.1604-6.1285-5.233-5.2583,3.4934-5.6621-7.6828-6.2991-2.6738-6.8249,1.1122-.7953,5.7267-1.1297,11.5173-1.6599,17.2807-.4675-.0322-.9351-.0644-1.4026-.0967-.5432-7.5587,.1818-15.3073-3.0175-22.4714-3.6619,.4532-2.8163,4.7635-6.1108,6.0156-.3558-2.8191,1.8001-5.357,.13-8.1765-6.0583,2.4195-8.7063,8.5448-13.3754,12.389-.3824-.3782-.7648-.7565-1.1473-1.1347,2.7357-5.0689,6.3666-9.6974,7.8779-15.3284-2.1026-2.479-4.65,.8304-6.5811-1.0288,.22-1.7477,3.5656-2.1471,2.4406-4.2663-1.051-1.9797-3.3363-.8185-5.0491-.7367-5.4328,.2595-10.4489,3.3754-17.6526,2.6897,7.8264-3.5886,15.1466-5.0186,20.691-10.3223-3.9962-3.2674-8.2375-1.712-12.6608-2.9123,4.2708-1.6096,8.6475-.0181,12.446-3.0418-4.3814-5.5152-11.5811-6.0659-18.1779-10.0651,6.1673-.6014,10.5476,1.8302,15.2033,2.2266,1.7671,.1504,4.1334,1.1749,5.1679-.5345,1.2838-2.1216-1.9804-2.67-2.502-4.3569,7.6791-.4686,7.7692-.5177,4.0664-7.3152-2.0474-3.7585-4.4566-7.3202-6.3796-11.3732,6.16,3.26,8.9751,10.6586,15.4797,13.5591,1.8709-2.725-.1887-5.2789-.0991-8.0028,3.5184,.7653,2.5287,5.3116,6.1923,5.7762,3.0907-6.6323,2.5248-13.8894,3.004-20.9756,.5207-.0241,1.0413-.0482,1.5619-.0722,.5108,5.3346,.8661,10.6913,1.624,15.9906,.2376,1.6609-.0387,4.1761,2.0232,4.8108,2.3873,.7349,2.0331-2.7314,4.3072-3.3971-.2525,8.1512,2.8849,6.071,6.4936,2.1526,3.4516-3.7478,6.8554-7.5395,10.2802-11.3119,.2909,.3018,.5992,.5848,.9246,.8489-2.752,4.7026-5.5303,9.3901-8.2396,14.1172-.7807,1.3621-1.8937,3.1478-.8731,4.4091,1.5187,1.8769,3.1978-.3287,4.8353-.6049,.2862,.3744,.5725,.7488,.8588,1.1232-.38,1.7855-3.4694,2.5481-2.38,4.5584,1.0191,1.8805,3.4046,.8681,5.0686,.595,4.7589-.781,9.4636-1.8922,14.4054-2.35-5.2841,4.041-12.4689,4.8047-17.2595,10.0324,3.644,3.3334,8.1965,1.481,12.118,3.1323-3.965,1.3638-8.2407-.1768-12.2441,2.7747,5.1675,5.1706,11.9829,6.7123,18.2066,9.3259,.0635,.7247,.1269,1.4495,.1903,2.1742Z"/>
      <path class="cls-1" d="M43.9931,14.7036c-.5207,.0241-1.0413,.0482-1.562,.0722V0c2.67,4.769,2.5311,9.705,1.562,14.7036Z"/>
      <path class="cls-1" d="M84.3327,73.085c-.0634-.7247-.1269-1.4495-.1903-2.1742,5.129,1.6747,10.2582,3.3495,15.3873,5.0243-5.579,.9276-10.3308-1.2-15.1969-2.8501Z"/>
      <path class="cls-1" d="M42.4851,104.1623c.4675,.0322,.9351,.0644,1.4026,.0967,1.2928,4.4177,.8134,8.7886-1.4026,13.2332v-13.3299Z"/>
      <path class="cls-1" d="M66.2829,74.6457c.8588,.1979,1.9896,.4895,1.1595,1.5677-.6295,.8177-1.5721,.1504-2.1996-.5358,.3466-.3438,.6933-.6879,1.0401-1.0319Z"/>
      <path class="cls-1" d="M20.1115,91.9189c-.6136,1.2569-1.4942,1.6329-2.7328,.828,.5286-.6542,1.0571-1.3084,1.5856-1.9626,.3823,.3782,.7647,.7564,1.1472,1.1347Z"/>
      <path class="cls-1" d="M68.7211,22.9485c.3825-.3548,.9845-1.0819,1.1132-1.006,1.1448,.6744,.2029,1.254-.1902,1.8542-.3238-.2635-.6321-.5464-.923-.8482Z"/>
      <path class="cls-1" d="M69.5632,94.547c.1091,.2589,.2805,.5412,.3283,.843,.0183,.1157-.2458,.2761-.3812,.4161-.1265-.2885-.2992-.5686-.3537-.8701-.0184-.1019,.2626-.2579,.4066-.389Z"/>
      <path class="cls-1" d="M65.3685,41.7189c.678-.3945,1.4033-1.1355,1.9832,.0086,.0732,.1445-.7282,.7321-1.1244,1.1145-.2863-.3744-.5725-.7488-.8588-1.1231Z"/>
    </g>
  </g>
</svg>