<?xml version="1.0" encoding="UTF-8"?>
<svg id="Layer_2" data-name="Layer 2" xmlns="http://www.w3.org/2000/svg" width="102.1595" height="102.2729" viewBox="0 0 102.1595 102.2729">
  <defs>
    <style>
      .cls-1 {
        fill: #231f20;
      }
    </style>
  </defs>
  <g id="Layer_1-2" data-name="Layer 1">
    <g>
      <path class="cls-1" d="M0,51.092c13.8424,1.9833,26.6284,4.8273,36.5571,14.7991,9.9153,9.9583,12.3574,22.9567,14.6289,36.3818,2.2122-31.7177,18.9631-48.6814,50.9735-51.1595C70.2052,48.6837,53.6024,31.8155,51.0584,0,48.5326,31.7185,31.8006,48.826,0,51.092Z"/>
      <path class="cls-1" d="M0,51.092C31.8006,48.826,48.5326,31.7185,51.0584,0c2.544,31.8155,19.1468,48.6837,51.1011,51.1134-32.0103,2.4781-48.7613,19.4418-50.9735,51.1595-2.2715-13.4251-4.7136-26.4235-14.6289-36.3818C26.6284,55.9193,13.8424,53.0754,0,51.092Z"/>
    </g>
  </g>
</svg>