<?xml version="1.0" encoding="UTF-8"?>
<svg id="Layer_2" data-name="Layer 2" xmlns="http://www.w3.org/2000/svg" width="128.1639" height="104.3756" viewBox="0 0 128.1639 104.3756">
  <defs>
    <style>
      .cls-1 {
        fill: #231f20;
      }
    </style>
  </defs>
  <g id="Layer_1-2" data-name="Layer 1">
    <g>
      <path class="cls-1" d="M42.3958,30.7193c-.9497-1.3443-1.6163-3.2492-4.6624-1.6892,1.3463,1.0412,2.4148,1.8676,3.4833,2.6941,4.3906,5.8147,10.1136,10.5979,14.1077,17.7829-11.7218,1.0025-22.6749,2.9437-33.8319,2.905H0c.0422,.6579,.0844,1.3158,.1267,1.9737H21.3943c11.1503,1.0955,22.4624,.9102,34.5881,3.5261-6.4121,7.3839-11.9512,13.7625-17.4903,20.1411,7.9495-3.862,13.3509-11.2678,21.5953-15.7128,2.1213,14.4517,2.6847,28.2424,3.9354,42.0355,2.0029-13.8092,1.5856-27.8664,4.5274-42.5102,5.9911,4.9596,11.2447,9.3087,16.4984,13.6579,.3768-.3233,.7536-.6467,1.1304-.97-4.3727-5.382-8.7454-10.764-13.6508-16.8016,14.6565-2.5373,28.5325-2.981,42.4103-3.4052h13.2253c-4.5609-2.0982-8.9925-2.8202-13.448-1.462-13.7315-1.4549-27.6805-.7731-42.2813-3.93,5.7206-6.7334,10.8739-12.7991,16.0272-18.8647-5.4911,2.9635-10.1008,6.9138-14.7749,10.7864-1.3962,1.1567-2.7987,3.1946-4.6831,2.533-2.0197-.7092-1.4498-3.1791-1.6023-4.9473-.7988-9.2611-1.6059-18.5235-2.2084-27.7986-.2279-3.5072-2.8386-7.0797,.0408-10.6633,2.1387,1.6288,2.1,4.8048,.9939,5.549-4.9315,3.3176-2.8137,8.1866-3.4077,12.3972-1.2368,8.7667-.8206,17.7627-3.2444,26.988-6.1201-5.0639-11.65-9.6394-17.1798-14.2148Z"/>
      <path class="cls-1" d="M114.9386,54.3465c-13.8778,.4242-27.7538,.8679-42.4103,3.4052,4.9054,6.0376,9.2781,11.4196,13.6508,16.8016-.3768,.3233-.7536,.6467-1.1304,.97-5.2537-4.3492-10.5073-8.6983-16.4984-13.6579-2.9418,14.6438-2.5245,28.701-4.5274,42.5102-1.2507-13.7931-1.8141-27.5838-3.9354-42.0355-8.2444,4.445-13.6458,11.8507-21.5953,15.7128,5.5391-6.3786,11.0782-12.7572,17.4903-20.1411-12.1257-2.6159-23.4378-2.4306-34.5881-3.526,.0327-.6579,.0654-1.3158,.0981-1.9737,11.157,.0387,22.1101-1.9024,33.8319-2.905-3.9941-7.185-9.7172-11.9681-14.1077-17.7829,.393-.335,.786-.6699,1.1791-1.0049,5.5298,4.5755,11.0597,9.1509,17.1798,14.2148,2.4239-9.2253,2.0076-18.2212,3.2444-26.988,.594-4.2105-1.5238-9.0795,3.4077-12.3972,1.1062-.7442,1.1448-3.9201-.9939-5.549-2.8794,3.5836-.2687,7.1561-.0408,10.6633,.6026,9.2751,1.4096,18.5374,2.2084,27.7986,.1525,1.7682-.4174,4.2381,1.6023,4.9473,1.8844,.6616,3.2869-1.3762,4.6831-2.533,4.6741-3.8726,9.2839-7.8229,14.7749-10.7864-5.1533,6.0657-10.3066,12.1313-16.0272,18.8647,14.6008,3.157,28.5498,2.4752,42.2814,3.9296,.0743,.4872,.1484,.9748,.2226,1.4624Z"/>
      <path class="cls-1" d="M21.4925,52.412c-.0327,.6579-.0653,1.3158-.0981,1.9737-7.0893,0-14.1785,0-21.2678,0-.0422-.6579-.0844-1.3158-.1267-1.9737H21.4925Z"/>
      <path class="cls-1" d="M114.9386,54.3465c-.0741-.4876-.1482-.9752-.2226-1.4624,4.4553-1.3577,8.8869-.6358,13.4479,1.4624h-13.2253Z"/>
      <path class="cls-1" d="M41.2167,31.7241c-1.0685-.8264-2.1371-1.6528-3.4833-2.694,3.0462-1.56,3.7127,.3449,4.6624,1.6892-.393,.3349-.7861,.6699-1.1791,1.0048Z"/>
    </g>
  </g>
</svg>