<?xml version="1.0" encoding="UTF-8"?>
<svg id="Layer_2" data-name="Layer 2" xmlns="http://www.w3.org/2000/svg" width="119.7537" height="123.8193" viewBox="0 0 119.7537 123.8193">
  <defs>
    <style>
      .cls-1 {
        fill: #231f20;
      }
    </style>
  </defs>
  <g id="Layer_1-2" data-name="Layer 1">
    <g>
      <path class="cls-1" d="M0,61.5056c.0548,.4025,.1098,.8049,.1646,1.2074,14.0227,1.7166,28.0454,3.4332,42.5625,5.2104-2.03,4.9498-3.8037,9.2749-5.9362,14.4747,3.3181-1.436,5.5831-2.1122,7.5218-3.3145,5.0435-3.1279,6.6942-2.1162,7.1241,4.0258,.9506,13.5812,2.7505,27.103,4.2041,40.649l1.4109,.0609c1.7028-15.5895,3.4055-31.1791,5.1579-47.2216,4.4793,1.7807,8.403,3.3405,13.4858,5.3611-1.4403-3.5029-2.172-5.9185-3.3738-8.072-2.4779-4.4401-1.7969-6.479,3.7268-6.9145,9.2893-.7325,18.5344-2.0414,27.7896-3.1767,2.0383-.25,4.3913,.1402,6.5739-2.5311-9.787-1.1725-18.7857-2.1691-27.7608-3.3458-11.8823-1.5578-11.8682-1.616-7.5371-12.8436,.1199-.3105-.2388-.8056-.4618-1.4784-3.9505,1.6579-7.8932,3.3125-12.3521,5.1838-1.8085-16.6896-3.5473-32.7351-5.2861-48.7805-2.5814,11.4203-3.7033,22.7493-4.9313,34.0668-.4988,4.5969,.3474,10.9429-2.2779,13.2735-2.8586,2.5377-7.632-3.1485-12.7547-3.6896,1.0249,2.4621,1.7019,4.6352,2.7857,6.582,2.4867,4.4667,2.6007,6.6346-3.7854,7.0831-12.0556,.8469-24.038,2.7346-36.0507,4.1898Zm74.1613,37.1113c4.4611,.843,8.5276,1.8441,12.6547,2.3273,4.3404,.5082,6.4672,2.3129,6.699,6.9674,.199,3.9972,1.4796,7.9406,2.6817,13.8845,1.6301-7.7525,1.1903-14.7016,4.4243-18.6205,3.5767-4.3343,11.2636-2.7565,16.9799-4.5089,.1633-.0501,.2895-.2208,2.1527-1.7068-17.0418,2.4877-22.613-6.2751-23.4339-21.8495-1.7327,7.5222-1.4109,14.7225-4.8412,18.6328-3.5292,4.0229-11.434,1.9224-17.3174,4.8737Z"/>
      <path class="cls-1" d="M0,61.5056c12.0128-1.4552,23.9952-3.3429,36.0507-4.1898,6.386-.4486,6.2721-2.6164,3.7854-7.0831-1.0838-1.9468-1.7609-4.1199-2.7857-6.582,5.1227,.5411,9.8961,6.2273,12.7547,3.6896,2.6253-2.3306,1.7791-8.6766,2.2779-13.2735,1.228-11.3175,2.3499-22.6465,4.9313-34.0668,1.7388,16.0454,3.4776,32.0909,5.2861,48.7805,4.4589-1.8713,8.4016-3.5259,12.3521-5.1838,.223,.6729,.5816,1.1679,.4618,1.4784-4.3311,11.2276-4.3452,11.2858,7.5371,12.8436,8.9751,1.1766,17.9738,2.1733,27.7608,3.3458-2.1826,2.6713-4.5356,2.281-6.5739,2.5311-9.2552,1.1353-18.5003,2.4442-27.7896,3.1767-5.5238,.4356-6.2048,2.4744-3.7268,6.9145,1.2019,2.1535,1.9335,4.5691,3.3738,8.072-5.0828-2.0206-9.0064-3.5804-13.4858-5.3611-1.7523,16.0425-3.4551,31.632-5.1579,47.2216l-1.4109-.0609c-1.4536-13.5461-3.2535-27.0678-4.2041-40.649-.4299-6.142-2.0806-7.1537-7.1241-4.0258-1.9386,1.2023-4.2037,1.8785-7.5218,3.3145,2.1324-5.1998,3.9062-9.525,5.9362-14.4747-14.5171-1.7772-28.5399-3.4938-42.5625-5.2104-.0548-.4025-.1098-.8049-.1646-1.2074Z"/>
      <path class="cls-1" d="M74.1613,98.6169c5.8834-2.9513,13.7882-.8508,17.3174-4.8737,3.4302-3.9104,3.1085-11.1106,4.8412-18.6328,.8209,15.5744,6.3921,24.3372,23.4339,21.8495-1.8632,1.486-1.9895,1.6567-2.1527,1.7068-5.7163,1.7524-13.4033,.1746-16.9799,4.5089-3.234,3.9189-2.7943,10.868-4.4243,18.6205-1.2021-5.9438-2.4828-9.8872-2.6817-13.8845-.2318-4.6545-2.3586-6.4591-6.699-6.9674-4.1271-.4832-8.1936-1.4843-12.6547-2.3273Z"/>
    </g>
  </g>
</svg>