<?xml version="1.0" encoding="UTF-8"?>
<svg id="Layer_2" data-name="Layer 2" xmlns="http://www.w3.org/2000/svg" width="101.5835" height="96.7841" viewBox="0 0 101.5835 96.7841">
  <defs>
    <style>
      .cls-1 {
        fill: #231f20;
      }
    </style>
  </defs>
  <g id="Layer_1-2" data-name="Layer 1">
    <g>
      <path class="cls-1" d="M47.7457,0C46.0227,30.5191,27.6994,40.1153,0,38.0934c11.4899,4.9307,22.0148,10.017,25.0774,22.8613,2.8618,12.002-2.7412,22.5461-6.8264,33.5129,8.7567-8.5482,16.6149-18.4589,30.0466-18.3902,13.562,.0694,21.1918,10.4138,29.9485,18.9451-4.4364-11.8249-11.0916-23.1485-6.6045-36.1927,4.5254-13.1556,16.5743-17.2951,29.942-22.0154-42.2768-.5332-45.9937-3.1478-53.8378-36.8144ZM18.1235,96.3098c-.2622-.6233-.424-1.0081-.5859-1.3929-.5769,.3236-1.1538,.6472-1.7307,.9708,.2085,.316,.4289,.9048,.6231,.8964,.5569-.0243,1.1032-.2907,1.6934-.4742Z"/>
      <path class="cls-1" d="M47.7457,0c7.8441,33.6666,11.561,36.2812,53.8378,36.8144-13.3677,4.7203-25.4165,8.8598-29.942,22.0154-4.4871,13.0442,2.168,24.3678,6.6045,36.1927-8.7566-8.5313-16.3865-18.8756-29.9485-18.9451-13.4318-.0688-21.2899,9.8419-30.0466,18.3902,4.0853-10.9668,9.6882-21.5109,6.8264-33.5129-3.0626-12.8442-13.5875-17.9306-25.0774-22.8613C27.6994,40.1153,46.0227,30.5191,47.7457,0Z"/>
      <path class="cls-1" d="M18.1235,96.3098c-.5902,.1836-1.1366,.45-1.6934,.4742-.1943,.0085-.4147-.5803-.6231-.8963,.5769-.3236,1.1538-.6472,1.7307-.9708,.1619,.3848,.3237,.7696,.5859,1.3929Z"/>
    </g>
  </g>
</svg>