<?xml version="1.0" encoding="UTF-8"?>
<svg id="Layer_2" data-name="Layer 2" xmlns="http://www.w3.org/2000/svg" width="48.0549" height="128.5088" viewBox="0 0 48.0549 128.5088">
  <defs>
    <style>
      .cls-1 {
        fill: #231f20;
      }
    </style>
  </defs>
  <g id="Layer_1-2" data-name="Layer 1">
    <g>
      <path class="cls-1" d="M25.4218,100.9912c.4237-6.9741,.8163-13.9504,1.295-20.9208,.1084-1.578-.1171-3.5441,1.5669-4.3823,2.3301-1.1598,2.0672,2.6779,4.4321,2.468-1.5641-7.8808,2.4606-6.0049,6.8999-4.1366,2.5487,1.0726,4.7581,3.4094,8.4391,3.0199-3.4073-4.5159-9.4348-5.3411-11.4218-10.3865,2.0163-2.7262,5.53-.9929,8.3968-3.1697-1.6231-.221-2.5211-.2919-3.3962-.4733-1.7284-.3583-4.2343,.1758-4.7121-1.998-.4593-2.0897,1.9091-2.9557,3.3161-4.059,2.4338-1.9084,4.9838-3.6688,7.7076-5.6535-5.798-2.4238-11.0641,9.9782-16.2109-.3976-7.99,3.18-4.8884-4.0334-5.1891-6.362-.9215-7.1347-.9177-14.4017-1.0528-21.6214-.1429-7.6369-.0321-15.2786-.0321-22.9182-.6001,.0072-1.2003,.0144-1.8004,.0216,0,14.8843,.0673,29.7692-.0667,44.6524-.0221,2.4577,.2582,5.9273-1.8763,7.0727-3.0048,1.6124-3.205-3.286-5.687-3.7898-.3583-.0727-.8013,.2723-1.2484,.4403,.5761,2.2107,3.874,4.3371,1.5446,6.4913-1.7493,1.6176-4.268-.5759-6.3665-1.3643-2.1097-.7926-4.059-2.4018-6.6905-1.0431,3.1822,2.9132,9.0078,3.8813,9.3741,8.3438,.281,3.4233-5.3606,1.0245-7.8044,3.2737,2.878,1.274,7.2224-.3954,7.9161,2.3894,.8099,3.2509-3.4553,4.3962-5.7462,6.1732-1.9532,1.5151-4.1804,2.6772-7.0088,4.4477,5.1861,.6117,8.2764-2.793,12.0846-3.8144,1.4377-.3856,3.0854-1.9734,4.4476-.5098,1.3052,1.4023-.0079,3.003-.5477,4.5099-.3025,.8444-2.0541,1.4041-.808,2.6066,1.2844,.493,1.6657-.4343,2.2913-1.076,1.2058-1.2367,1.7583-3.8765,4.0396-3.0617,2.038,.7279,1.6279,3.2463,1.7545,4.9394,.5033,6.7316,.6885,13.487,.9915,20.2336v27.5708c.3894,.0005,.7789,.0009,1.1683,.0014v-27.5176Z"/>
      <path class="cls-1" d="M24.2535,100.9366c-.303-6.7466-.4882-13.502-.9915-20.2336-.1266-1.693,.2835-4.2115-1.7545-4.9394-2.2813-.8148-2.8338,1.825-4.0396,3.0617-.6256,.6416-1.0069,1.569-2.2913,1.076-1.2462-1.2025,.5055-1.7622,.808-2.6066,.5398-1.5069,1.8528-3.1077,.5477-4.5099-1.3623-1.4636-3.0099,.1241-4.4476,.5098-3.8082,1.0214-6.8985,4.4261-12.0846,3.8144,2.8284-1.7705,5.0556-2.9326,7.0088-4.4477,2.2908-1.777,6.556-2.9223,5.7462-6.1732-.6938-2.7848-5.0381-1.1154-7.9161-2.3894,2.4438-2.2492,8.0854,.1497,7.8044-3.2737-.3663-4.4626-6.1918-5.4307-9.3741-8.3438,2.6315-1.3587,4.5808,.2505,6.6905,1.0431,2.0985,.7884,4.6172,2.9819,6.3665,1.3643,2.3294-2.1541-.9685-4.2805-1.5446-6.4913,.4471-.168,.8901-.513,1.2484-.4403,2.482,.5038,2.6823,5.4022,5.687,3.7898,2.1345-1.1454,1.8542-4.6151,1.8763-7.0727,.134-14.8831,.0667-29.768,.0667-44.6524,.6001-.0072,1.2003-.0144,1.8004-.0216,0,7.6396-.1108,15.2813,.0321,22.9182,.1351,7.2197,.1313,14.4868,1.0528,21.6214,.3008,2.3286-2.8009,9.542,5.1891,6.362,5.1468,10.3758,10.4129-2.0261,16.2109,.3976-2.7238,1.9847-5.2737,3.7451-7.7076,5.6535-1.407,1.1033-3.7754,1.9693-3.3161,4.059,.4778,2.1738,2.9837,1.6396,4.7121,1.998,.8751,.1814,1.773,.2523,3.3962,.4733-2.8667,2.1768-6.3805,.4435-8.3968,3.1697,1.987,5.0454,8.0145,5.8706,11.4218,10.3865-3.681,.3895-5.8905-1.9474-8.4391-3.0199-4.4393-1.8682-8.464-3.7442-6.8999,4.1366-2.3649,.2099-2.1019-3.6278-4.4321-2.468-1.684,.8382-1.4585,2.8043-1.5669,4.3823-.4788,6.9704-.8713,13.9467-1.295,20.9209-.3907,.008-.7801-.0102-1.1683-.0547Z"/>
      <path class="cls-1" d="M24.2535,100.9366c.3882,.0444,.7776,.0627,1.1683,.0547v27.5175c-.3894-.0005-.7789-.0009-1.1683-.0014v-27.5708Z"/>
    </g>
  </g>
</svg>