<?xml version="1.0" encoding="UTF-8"?>
<svg id="Layer_2" data-name="Layer 2" xmlns="http://www.w3.org/2000/svg" width="128.9396" height="112.0313" viewBox="0 0 128.9396 112.0313">
  <defs>
    <style>
      .cls-1 {
        fill: #231f20;
      }
    </style>
  </defs>
  <g id="Layer_1-2" data-name="Layer 1">
    <g>
      <path class="cls-1" d="M98.9256,.2037c-.455,.3721-.9099,.7441-1.365,1.1162-9.7189,7.5962-19.5375,15.0701-29.0966,22.8623-2.9129,2.3745-4.8676,2.3482-7.7132,.01-8.632-7.0927-17.4515-13.9592-26.2714-20.8195-1.2973-1.009-2.3709-3.1431-4.9681-1.716,7.8028,9.9316,15.371,19.9235,23.3732,29.5552,2.7919,3.3604,2.602,5.502-.0549,8.7284-7.85,9.5329-15.3687,19.3386-23.2135,29.2867,3.3244,1.0366,4.4521-1.2678,5.9574-2.4268,8.3008-6.3907,16.6468-12.7421,24.6323-19.5137,3.3621-2.8511,5.3183-2.6698,8.5501,.2516,18.3106,16.5516,36.8543,32.8458,55.3329,49.2116,1.395,1.2356,2.9,2.3472,4.8508,3.9162-.2177-3.3844-2.2426-4.4641-3.5602-5.9604-15.2357-17.3017-30.5306-34.5514-45.7983-51.8249-6.5345-7.393-6.4794-7.3699-.2045-15.415,6.4287-8.2422,12.7614-16.5594,19.1362-24.8438,.3947-.5386,.7895-1.0771,1.1842-1.6157,.2689-.3354,.5377-.6709,.8066-1.0063-.526,.0679-1.0519,.1358-1.578,.2037ZM9.9287,71.9149c-.4273,.3878-.8547,.7756-1.282,1.1634,3.9617,5.0477,7.7377,10.2578,11.9549,15.0822,2.5275,2.8913,2.2656,4.9092-.1114,7.6726-4.136,4.8082-7.9083,9.9289-11.8331,14.9186,.3817,.4265,.7633,.853,1.145,1.2795,4.4553-3.486,9.3061-6.5798,13.259-10.5639,4.2911-4.3247,7.4316-3.6259,11.4592,.1694,3.8917,3.6672,8.3644,6.7182,12.5819,10.0399-1.6091-6.149-5.5257-10.4417-9.2986-14.6248-3.591-3.9815-3.0729-6.5835,.1701-10.3994,3.6183-4.2575,7.7661-8.3289,9.5369-14.0414-5.2262,3.4066-10.2688,6.9608-14.8012,11.0764-3.1228,2.8355-5.2177,2.4438-8.1652-.1488-4.6682-4.1061-9.7237-7.7718-14.6155-11.6239Zm92.3066-19.9264c7.7614-4.9611,14.9558-4.5524,22.7538-.1108-5.4636-7.8701-4.2445-15.2876-.1457-23.2218-7.7465,6.4722-15.0323,4.5082-22.8635,.6097,5.0707,7.6983,4.9246,14.9517,.2554,22.7228Zm-21.2907,44.3059c-3.411-5.1658-1.6567-10.0869,.8972-16.1995-5.8679,4.2215-10.5905,4.1759-16.084,1.1018,3.9149,5.1725,2.5325,10.061,.576,15.4961,4.9209-3.4604,9.4518-2.762,14.6108-.3984ZM15.4874,20.8198c-5.1061,3.8648-9.9472,3.1364-15.4874,.2578,3.9827,5.1517,2.7582,10.0082,.5844,15.259,5.0596-3.4091,9.9407-1.9289,16.4873,.5988-5.1721-6.0459-3.7218-10.7513-1.5843-16.1157Z"/>
      <path class="cls-1" d="M98.5128,2.6221c-6.3748,8.2844-12.7075,16.6015-19.1362,24.8438-6.2749,8.0451-6.33,8.0221,.2045,15.415,15.2678,17.2735,30.5626,34.5232,45.7983,51.8249,1.3175,1.4962,3.3425,2.5759,3.5602,5.9604-1.9508-1.569-3.4558-2.6807-4.8508-3.9162-18.4786-16.3658-37.0223-32.66-55.3329-49.2116-3.2319-2.9214-5.1881-3.1027-8.5501-.2516-7.9854,6.7716-16.3315,13.1229-24.6323,19.5137-1.5053,1.159-2.633,3.4633-5.9574,2.4268,7.8448-9.9482,15.3634-19.7539,23.2135-29.2867,2.6569-3.2263,2.8468-5.3679,.0549-8.7284C44.8823,21.5803,37.314,11.5884,29.5113,1.6568c2.5973-1.4271,3.6708,.7069,4.9681,1.716,8.8199,6.8603,17.6394,13.7268,26.2714,20.8195,2.8457,2.3382,4.8003,2.3645,7.7132-.01,9.5591-7.7922,19.3778-15.2661,29.0967-22.8618,.3174,.4342,.6348,.868,.9521,1.3017Z"/>
      <path class="cls-1" d="M9.9287,71.9149c4.8917,3.8521,9.9473,7.5178,14.6155,11.6239,2.9475,2.5926,5.0424,2.9843,8.1652,.1488,4.5324-4.1156,9.575-7.6698,14.8012-11.0764-1.7708,5.7125-5.9186,9.7839-9.5369,14.0414-3.243,3.8159-3.7611,6.4179-.1701,10.3994,3.7729,4.1831,7.6895,8.4758,9.2986,14.6248-4.2175-3.3217-8.6902-6.3727-12.5819-10.0399-4.0277-3.7953-7.1682-4.4941-11.4592-.1694-3.9529,3.9841-8.8036,7.0779-13.259,10.5639-.3816-.4265-.7633-.853-1.145-1.2795,3.9248-4.9897,7.6971-10.1105,11.8331-14.9186,2.377-2.7634,2.6389-4.7813,.1114-7.6726-4.2172-4.8244-7.9932-10.0344-11.9549-15.0822,.4273-.3878,.8547-.7756,1.282-1.1634Z"/>
      <path class="cls-1" d="M102.2353,51.9885c4.6693-7.7712,4.8154-15.0245-.2554-22.7228,7.8312,3.8984,15.1171,5.8624,22.8635-.6097-4.0988,7.9342-5.318,15.3517,.1457,23.2218-7.7981-4.4416-14.9924-4.8502-22.7538,.1108Z"/>
      <path class="cls-1" d="M80.9446,96.2944c-5.159-2.3636-9.6899-3.062-14.6108,.3984,1.9565-5.4351,3.3389-10.3236-.576-15.4961,5.4935,3.0741,10.2161,3.1197,16.084-1.1018-2.5539,6.1125-4.3082,11.0337-.8972,16.1995Z"/>
      <path class="cls-1" d="M15.4874,20.8198c-2.1375,5.3644-3.5879,10.0697,1.5843,16.1157-6.5466-2.5277-11.4277-4.0079-16.4873-.5988,2.1738-5.2508,3.3984-10.1073-.5844-15.259,5.5402,2.8786,10.3813,3.607,15.4874-.2578Z"/>
      <path class="cls-1" d="M99.6971,1.0064c-.3948,.5386-.7896,1.0771-1.1843,1.6157-.3173-.4337-.6347-.8675-.9521-1.3017,.4549-.3725,.9099-.7446,1.3649-1.1167,.233,.2908,.4901,.5583,.7715,.8027Z"/>
      <path class="cls-1" d="M98.9256,.2037c.526-.0679,1.0519-.1358,1.5779-.2037-.2688,.3354-.5376,.6709-.8065,1.0063-.2812-.2443-.5384-.5119-.7714-.8027Z"/>
    </g>
  </g>
</svg>