<?xml version="1.0" encoding="UTF-8"?>
<svg id="Layer_2" data-name="Layer 2" xmlns="http://www.w3.org/2000/svg" width="115.5681" height="104.3316" viewBox="0 0 115.5681 104.3316">
  <defs>
    <style>
      .cls-1 {
        fill: #231f20;
      }
    </style>
  </defs>
  <g id="Layer_1-2" data-name="Layer 1">
    <g>
      <path class="cls-1" d="M49.1217,96.7141c2.8423-7.5304,5.2852-13.2894,7.1674-19.2259,1.389-4.3809,3.7889-6.9465,8.2835-8.3378,6.1227-1.8953,12.0081-4.5566,19.0267-7.2914-7.1027-2.6988-12.8915-5.1688-18.8603-7.0763-4.3664-1.3955-7.0265-3.751-8.4079-8.2483-1.8475-6.0148-4.3714-11.8219-7.2116-19.3198-2.9533,7.8093-5.4316,13.7835-7.4501,19.9092-1.2861,3.9031-3.5069,6.0892-7.4728,7.3562-6.2001,1.9809-12.1912,4.6156-19.5445,7.4672,7.4272,2.8462,13.4157,5.3751,19.5668,7.4133,3.8764,1.2844,6.1813,3.4358,7.4533,7.3694,1.9884,6.149,4.4881,12.1326,7.4493,19.9843Zm27.2719-49.0384c12.3615,1.4834,18.0554,7.8351,20.5543,18.0561,1.8769-10.8862,8.2532-16.5152,18.6202-18.8935-10.907-1.9032-16.4591-8.3148-18.4799-19.8718-2.6471,6.1761-3.4595,11.0962-6.3304,13.9365-2.9947,2.9626-7.9731,3.9208-14.3641,6.7727ZM17.6301,5.4146c-.177,12.7662-7.2558,17.7271-17.6301,20.6956,11.6612,1.2307,16.2147,8.7424,19.0987,18.632,1.7796-10.8148,7.8757-16.8141,19.4625-18.2823q-12.8781-6.2017-20.9312-21.0453ZM81.8801,72.331c-1.2863,6.3297-4.6234,9.3106-9.5372,11.2506,5.5039,1.1453,8.0797,4.6387,9.6326,10.7501,1.38-6.3477,4.8277-9.2893,11.6472-11.5433-7.5383-.8859-10.0088-4.533-11.7425-10.4574ZM60.1537,10.8938c5.5372,.9685,7.5474,4.9644,9.8149,9.6959,.1587-6.1862,5.0153-7.6875,10.6702-10.6454-7.3426-.4339-9.1146-4.8068-11.4427-9.9443-1.0554,5.9877-4.0672,9.0205-9.0424,10.8938ZM21.3512,104.3316c1.0358-5.272,5.1748-7.4428,10.7454-10.1477-6.8435-.7702-9.1322-4.2615-10.6023-10.5933-1.6047,6.6919-5.2027,9.5601-11.1766,11.8352,6.5336,.7664,9.2767,3.8787,11.0334,8.9057Z"/>
      <path class="cls-1" d="M49.1217,96.7141c-2.9612-7.8516-5.461-13.8353-7.4493-19.9843-1.2719-3.9336-3.5769-6.085-7.4533-7.3694-6.1511-2.0382-12.1396-4.5671-19.5668-7.4133,7.3532-2.8516,13.3443-5.4863,19.5445-7.4672,3.9658-1.2671,6.1866-3.4531,7.4728-7.3562,2.0185-6.1256,4.4969-12.0999,7.4501-19.9092,2.8401,7.4979,5.3641,13.305,7.2116,19.3198,1.3814,4.4973,4.0415,6.8528,8.4079,8.2483,5.9688,1.9075,11.7577,4.3776,18.8603,7.0763-7.0186,2.7348-12.904,5.3961-19.0267,7.2914-4.4946,1.3914-6.8945,3.957-8.2835,8.3378-1.8823,5.9366-4.3251,11.6955-7.1674,19.2259Z"/>
      <path class="cls-1" d="M76.3936,47.6757c6.391-2.8519,11.3694-3.8101,14.3641-6.7727,2.8709-2.8403,3.6833-7.7604,6.3304-13.9365,2.0208,11.557,7.5729,17.9686,18.4799,19.8718-10.367,2.3783-16.7433,8.0073-18.6202,18.8935-2.4989-10.221-8.1928-16.5727-20.5543-18.0561Z"/>
      <path class="cls-1" d="M17.6301,5.4146q8.0531,14.8436,20.9312,21.0453c-11.5868,1.4682-17.683,7.4675-19.4625,18.2823-2.8841-9.8896-7.4376-17.4013-19.0987-18.632,10.3743-2.9685,17.4531-7.9294,17.6301-20.6956Z"/>
      <path class="cls-1" d="M81.8801,72.331c1.7337,5.9244,4.2043,9.5715,11.7425,10.4574-6.8194,2.254-10.2672,5.1956-11.6472,11.5433-1.5529-6.1114-4.1286-9.6047-9.6326-10.7501,4.9139-1.9401,8.251-4.921,9.5372-11.2506Z"/>
      <path class="cls-1" d="M60.1537,10.8938c4.9752-1.8733,7.987-4.9061,9.0424-10.8938,2.3281,5.1375,4.1,9.5104,11.4427,9.9443-5.6549,2.9579-10.5114,4.4592-10.6702,10.6454-2.2675-4.7314-4.2777-8.7274-9.8149-9.6959Z"/>
      <path class="cls-1" d="M21.3512,104.3316c-1.7568-5.027-4.4998-8.1393-11.0334-8.9057,5.9739-2.275,9.5719-5.1433,11.1766-11.8352,1.47,6.3318,3.7588,9.8231,10.6023,10.5933-5.5707,2.7048-9.7096,4.8757-10.7454,10.1477Z"/>
    </g>
  </g>
</svg>