<?xml version="1.0" encoding="UTF-8"?>
<svg id="Layer_2" data-name="Layer 2" xmlns="http://www.w3.org/2000/svg" width="116.1015" height="119.0834" viewBox="0 0 116.1015 119.0834">
  <defs>
    <style>
      .cls-1 {
        fill: #231f20;
      }
    </style>
  </defs>
  <g id="Layer_1-2" data-name="Layer 1">
    <g>
      <path class="cls-1" d="M0,54.5422c.1005,.2683,.2009,.5365,.3013,.8048,13.1806,1.5378,26.3523,3.1582,39.5446,4.5886,11.604,1.2582,11.6208,1.1634,13.069,12.4172,.416,3.2325,.7756,6.4723,1.1717,9.7074,1.2449,10.1683,2.4949,20.336,3.743,30.504,2.76-15.1687,4.6353-30.1789,6.1236-45.2273,.4411-4.461,1.9427-6.1897,6.6328-6.6461,15.2033-1.4795,30.3481-3.5608,45.5154-5.4103-15.5094-2.7046-30.966-4.7721-46.4735-6.3349-3.9278-.3958-5.1133-1.9474-5.4737-5.4516-1-9.7255-2.1025-19.4432-3.3669-29.1377-.6271-4.807-.5166-9.802-2.8518-14.3563-2.2136,14.2413-3.9867,28.4341-5.4344,42.6599-.4127,4.0559-1.4059,5.9202-6.0792,6.3611-15.5096,1.4634-30.9532,3.6264-46.4221,5.5212Zm91.6899,13.2964c-2.6492,12.9851-7.7259,22.9667-22.8606,25.2299,17.4485,.759,19.3099,13.8208,22.9651,26.0149,2.7387-12.9499,6.1252-24.6897,22.5519-26.5476-15.6859-1.4642-19.5966-12.095-22.6564-24.6972ZM40.4348,18.3684c-9.1577-1.072-10.2628-8.1402-12.5364-14.618-1.4958,7.1548-4.0503,12.9632-12.3141,14.8455,9.8073,.5695,10.0135,8.2121,12.4424,15.2075,2.4037-6.9974,2.5618-14.6651,12.4081-15.4349Z"/>
      <path class="cls-1" d="M0,54.5422c15.4689-1.8947,30.9124-4.0578,46.4221-5.5212,4.6733-.4409,5.6664-2.3052,6.0792-6.3611,1.4477-14.2259,3.2208-28.4186,5.4344-42.6599,2.3351,4.5543,2.2247,9.5493,2.8518,14.3563,1.2644,9.6944,2.3669,19.4121,3.3669,29.1377,.3604,3.5042,1.5459,5.0558,5.4737,5.4516,15.5075,1.5629,30.964,3.6303,46.4735,6.3349-15.1674,1.8495-30.3121,3.9309-45.5154,5.4103-4.69,.4564-6.1917,2.1851-6.6328,6.6461-1.4882,15.0484-3.3636,30.0586-6.1236,45.2273-1.2481-10.1679-2.4981-20.3356-3.743-30.504-.3962-3.2352-.7557-6.4749-1.1717-9.7074-1.4483-11.2538-1.4651-11.1591-13.069-12.4172-13.1923-1.4304-26.364-3.0508-39.5446-4.5886-.1005-.2683-.2009-.5365-.3013-.8048Z"/>
      <path class="cls-1" d="M91.6899,67.8386c3.0598,12.6022,6.9705,23.233,22.6564,24.6972-16.4267,1.8579-19.8131,13.5977-22.5519,26.5476-3.6552-12.1941-5.5166-25.2559-22.9651-26.0149,15.1347-2.2633,20.2114-12.2448,22.8606-25.2299Z"/>
      <path class="cls-1" d="M40.4348,18.3684c-9.8463,.7698-10.0044,8.4375-12.4081,15.4349-2.4289-6.9954-2.6351-14.638-12.4424-15.2075,8.2638-1.8823,10.8182-7.6907,12.3141-14.8455,2.2735,6.4778,3.3787,13.546,12.5364,14.618Z"/>
    </g>
  </g>
</svg>