<?xml version="1.0" encoding="UTF-8"?>
<svg id="Layer_2" data-name="Layer 2" xmlns="http://www.w3.org/2000/svg" width="78.7599" height="89.4484" viewBox="0 0 78.7599 89.4484">
  <defs>
    <style>
      .cls-1 {
        fill: #231f20;
      }
    </style>
  </defs>
  <g id="Layer_1-2" data-name="Layer 1">
    <g>
      <path class="cls-1" d="M33.0425,0C31.0219,21.0904,24.1428,38.3731,0,44.0993c18.5392,3.4477,22.6466,8.4427,33.2179,39.9633,3.4061-21.1071,10.8609-37.4252,35.4189-40.4575C45.9018,41.7015,34.1416,23.8146,33.0425,0Zm35.39,69.6562c-1.0631,6.6443-5.4058,8.9303-11.56,9.8082,7.6628-.758,10.204,3.809,11.6931,9.9839-.2015-7.0925,4.3196-9.2905,10.1942-10.7266-6.3958,.2118-9.59-2.7622-10.3274-9.0656Z"/>
      <path class="cls-1" d="M33.0425,0c1.0991,23.8146,12.8593,41.7015,35.5943,43.6051-24.558,3.0323-32.0127,19.3504-35.4189,40.4575C22.6466,52.542,18.5392,47.5471,0,44.0993,24.1428,38.3731,31.0219,21.0904,33.0425,0Z"/>
      <path class="cls-1" d="M68.4325,69.6562c.7374,6.3034,3.9316,9.2774,10.3274,9.0656-5.8746,1.436-10.3958,3.634-10.1942,10.7266-1.4891-6.1749-4.0303-10.7419-11.6931-9.9839,6.1542-.8779,10.4968-3.164,11.56-9.8082Z"/>
    </g>
  </g>
</svg>