<?xml version="1.0" encoding="UTF-8"?>
<svg id="Layer_2" data-name="Layer 2" xmlns="http://www.w3.org/2000/svg" width="100.7258" height="120.3539" viewBox="0 0 100.7258 120.3539">
  <defs>
    <style>
      .cls-1 {
        fill: #231f20;
      }
    </style>
  </defs>
  <g id="Layer_1-2" data-name="Layer 1">
    <g>
      <path class="cls-1" d="M0,31.4222c9.5639,7.9987,13.7402,17.4482,13.8132,28.7198,.074,11.4453-4.283,20.9667-12.8356,28.8518,11.4225-3.801,21.9816-2.4828,31.893,3.4816,9.9101,5.9636,15.8546,14.7881,17.5294,27.8785,5.3076-25.8048,22.9571-36.552,50.3258-31.3529-9.1173-7.8599-13.4457-17.1624-13.5126-28.5245-.067-11.3805,4.2745-20.7451,12.5282-28.7431-11.5709,3.8372-22.0955,2.1833-31.9468-3.8055-9.8104-5.9638-15.4869-14.8665-17.224-27.9279C47.6996,22.2157,27.1389,39.1812,0,31.4222Z"/>
      <path class="cls-1" d="M0,31.4222C27.1389,39.1812,47.6996,22.2157,50.5706,0c1.7371,13.0614,7.4136,21.9641,17.224,27.9279,9.8513,5.9887,20.3759,7.6426,31.9468,3.8055-8.2537,7.998-12.5952,17.3626-12.5282,28.7431,.0669,11.3622,4.3953,20.6647,13.5126,28.5245-27.3688-5.1991-45.0182,5.548-50.3258,31.3529-1.6748-13.0904-7.6194-21.9149-17.5294-27.8785-9.9114-5.9644-20.4705-7.2827-31.893-3.4816,8.5525-7.8852,12.9095-17.4065,12.8356-28.8518-.073-11.2716-4.2493-20.7211-13.8132-28.7198Z"/>
    </g>
  </g>
</svg>