<?xml version="1.0" encoding="UTF-8"?>
<svg id="Layer_1" data-name="Layer 1" xmlns="http://www.w3.org/2000/svg" width="332.52" height="46.85" viewBox="0 0 332.52 46.85">
  <defs>
    <style>
      .cls-1 {
        fill: #5c5250;
      }

      .cls-2 {
        fill: #7a6b69;
      }

      .cls-3 {
        fill: #736563;
      }

      .cls-4 {
        fill: #605142;
      }

      .cls-5 {
        fill: #635854;
      }

      .cls-6 {
        fill: #594b40;
      }

      .cls-7 {
        fill: #77695f;
      }

      .cls-8 {
        fill: #6b5a59;
      }

      .cls-9 {
        fill: #594b48;
      }

      .cls-10 {
        fill: #6c5e51;
      }

      .cls-11 {
        fill: #66564e;
      }

      .cls-12 {
        fill: #6a5c5b;
      }

      .cls-13 {
        fill: #6e605b;
      }

      .cls-14 {
        fill: #74675d;
      }

      .cls-15 {
        fill: #6f5c4f;
      }

      .cls-16 {
        fill: #695548;
      }

      .cls-17 {
        fill: #705b4e;
      }

      .cls-18 {
        fill: #5f4b45;
      }

      .cls-19 {
        fill: #725f5b;
      }

      .cls-20 {
        fill: #6f625e;
      }

      .cls-21 {
        fill: #625857;
      }

      .cls-22 {
        fill: #635143;
      }

      .cls-23 {
        fill: #634e43;
      }

      .cls-24 {
        fill: #6b574b;
      }

      .cls-25 {
        fill: #4e3e3f;
      }

      .cls-26 {
        fill: #78655b;
      }

      .cls-27 {
        fill: #5b4c45;
      }

      .cls-28 {
        fill: #6f6761;
      }

      .cls-29 {
        fill: #705e57;
      }

      .cls-30 {
        fill: #534547;
      }

      .cls-31 {
        fill: #4f3b2e;
      }

      .cls-32 {
        fill: #6d574f;
      }

      .cls-33 {
        fill: #5a4d49;
      }

      .cls-34 {
        fill: #806d64;
      }

      .cls-35 {
        fill: #645351;
      }

      .cls-36 {
        fill: #6a5449;
      }

      .cls-37 {
        fill: #52453c;
      }

      .cls-38 {
        fill: #5f4b42;
      }

      .cls-39 {
        fill: #655959;
      }

      .cls-40 {
        fill: #5a4c40;
      }

      .cls-41 {
        fill: #77695a;
      }

      .cls-42 {
        fill: #6b6262;
      }

      .cls-43 {
        fill: #675950;
      }

      .cls-44 {
        fill: #725d58;
      }

      .cls-45 {
        fill: #5f524f;
      }

      .cls-46 {
        fill: #584b41;
      }

      .cls-47 {
        fill: #604e44;
      }

      .cls-48 {
        fill: #74635e;
      }

      .cls-49 {
        fill: #574c49;
      }

      .cls-50 {
        fill: #645952;
      }

      .cls-51 {
        fill: #695954;
      }

      .cls-52 {
        fill: #554035;
      }

      .cls-53 {
        fill: #73655b;
      }

      .cls-54 {
        fill: #574437;
      }

      .cls-55 {
        fill: #7b6966;
      }

      .cls-56 {
        fill: #5a453a;
      }

      .cls-57 {
        fill: #6e5b53;
      }

      .cls-58 {
        fill: #685a4d;
      }

      .cls-59 {
        fill: #6f5a53;
      }

      .cls-60 {
        fill: #655451;
      }

      .cls-61 {
        fill: #695750;
      }

      .cls-62 {
        fill: #514341;
      }

      .cls-63 {
        fill: #4e4038;
      }

      .cls-64 {
        fill: #66544c;
      }

      .cls-65 {
        fill: #665a4f;
      }

      .cls-66 {
        fill: #706560;
      }

      .cls-67 {
        fill: #6c574d;
      }

      .cls-68 {
        fill: #5f5246;
      }

      .cls-69 {
        fill: #695b52;
      }

      .cls-70 {
        fill: #746056;
      }

      .cls-71 {
        fill: #47392e;
      }

      .cls-72 {
        fill: #5e5047;
      }

      .cls-73 {
        fill: #705e55;
      }

      .cls-74 {
        fill: #6b564c;
      }

      .cls-75 {
        fill: #746158;
      }

      .cls-76 {
        fill: #62554a;
      }

      .cls-77 {
        fill: #6a5d54;
      }

      .cls-78 {
        fill: #665247;
      }

      .cls-79 {
        fill: #79675e;
      }

      .cls-80 {
        fill: #6a544f;
      }
    </style>
  </defs>
  <path class="cls-78" d="M240.93,46.51c-.51,0-1.02,0-1.53,0-.49-.5-.98-.48-1.46,.02-5,0-9.99,0-14.99,0-.36-1.26,.8-1.63,1.43-2.38-1.84-.16-1.38,1.7-2.2,2.39-2.25,0-4.5,0-6.76,0-1.52-2.26-1.28-2.58,2.25-2.95,2.06,.27,2.88-2.23,4.44-2.31,4-.19,6.17-4.28,10.14-4.37,1-.02,1.68-.97,2.42-1.64,.93-.85,1.8-2.45,3.21-.5,.62,.85,.63-.27,.97-.38,.33-.11,.58-.48,.92-.62,1.93-.78,3.99-2.14,4.96,1.21,.44,1.5,1.53,1.36,3.09,.66-2.38-1.46-1.45-3.47-1.16-5.4,.21-.28,.47-.48,.79-.6,1.47-.41,2.82,.9,4.32,.3,1.32,.54,1.44,1.55,1.01,3.03,4.32-3.86,3.69,1.37,5.26,2.57-.41-1.16-1.88-2.24-.74-3.57,1.04-1.21,2.47,.4,3.4,.08,3.08-1.06,4.93,.71,6.9,2.54-.82-1.92-3.6-3.09-1.74-5.71,.21-.26,.48-.45,.8-.57,1.1-.09,2.18-.43,3.3-.38,.31,.01,.62,.04,.92,.08,.79,.07,1.49-.38,2.26-.44,.66,.02,1.31,.11,1.97,.12,1.79,0,3.51-.02,4.07-2.32,.38-1.56,1.67-1.77,2.97-1.4,1.31,.37,3.19-.09,3.48,2.07,.03,.24-.13,.71-.07,.63,2.34-3.38,4.7,.21,7.02,.17,2.54-.04,5.02,.79,7.41-.77,.52-.34,1.21,0,1.78,.27,1.12,1.75,2.18-1.21,3.3-.05,2.47,1.1,5.11,1.73,7.61,2.74,.74,.3,2.2,.93,1.66,1.57-2.66,3.13,.92,3.3,2,4.64,.5,1.73,1.75,1.92,3.25,1.58,1.39-.31,2.12,.34,2.41,1.66,.33,1.52-.63,2.07-1.83,2.26-1.26,.2-2.04,.06-1.37,1.99,.66,1.92-1.62,1.6-2.76,2.07-3.32-.4-6.54-.13-9.66,1.21-1.86,.8-3.05-.12-3.75-1.86-1.12-1.74-2.8-1.08-4.34-1.01-.35-.05-.66-.19-.92-.41-.42-.27,.1,.06-.28-.25-1.2-.99-3.44-1.3-3.18-3.28,.27-2.06,2.49-1.95,4.07-2.56-.81-.99-1.08-2.65-2.87-2.42-1.46,.18-1.39,1.59-1.8,2.58-.74,1.82-1.44,3.64-4.31,2.57,1.64,1.33,2.61,2.66,2.08,4.14-.59,1.65-2.36,1.6-3.89,1.43-1.18-.13-2.18,.41-3.26,.7-2.59,.68-4.92,.42-6.44-2.38,.21,1.19,.41,2.35-.57,3.25-4.76,0-9.53,0-14.29,0-2.23-.98-4.47-1.59-6.7,0-2.02,0-4.03,0-6.05,0-2.98-.31-5.97-2.54-8.95,0Z"/>
  <path class="cls-77" d="M82.69,.24c7.24,0,14.48,.02,21.72,.03,.88,.99,0,1.84-.22,2.74-.11,.45-.31,1.07,.39,1.14,.51,.05,.73-.58,1.06-.93,.95-.57,1.91-.54,2.89-.06,.98,4.61-.28,6.43-4.62,6,2.34,1.29,3.89,1.32,5.1-.99,.58-1.11,1.69-2.25,2.82-.56,.75,1.12,.86-.08,1.18-.17,1.21-.32,2.42-.59,3.66-.54,2.9,.12,3.81,1.65,2.35,4.15-1.66,2.84-4.05,4.98-6.94,6.56-.35,.08-.7,.06-1.04-.08-1.35-2.22-3.65-2.26-6.23-2.61,0,1.74,.25,3.72-1.68,4.69-1.32,.66-1.89-.84-2.92-1.11,.96,.73,1.58,1.73,2.32,2.63,.79,2.28-.91,4.03-2.03,5.2-1.68,1.76-3.24-.38-4.86-1.59,1.48,1.45,2.31,3.21,4.06,4.08,.82,.41,1.58,.88,1.23,1.96-.32,1.01-1.07,1.66-2.12,1.86-1.58,.3-3.21,.01-4.77,.47-.38,.35-.82-.02-1.22,.09-.02,0,.04,.1,.18,.15,.5,.17,.88-.13,1.29-.34,2.16,3.09,6.62,1.7,8.9,4.57,.06,.35,0,.69-.18,1-.83,.72-1.99,.82-3,1.58,.78,.84,2.68,1.73,.28,2.84-2.81,.41-5.57-.08-7.37-1.34-.04,1.46,1.49,2.33,1.3,3.77-2.05,2.11-4.82-.34-6.98,1.09-1.76,0-3.51,0-5.27,.01-2.15-1.72-4.75-1.88-7.31-1.88-1.45,0-3.28,1.93-4.16-.4-.73-1.93-1.91-4.31,.64-6.06,1.78,.77,3.58,.13,5.37,.06,1.16-.05,1.32-.85,1.19-1.8-.06-.34-.1-.67-.13-1.01-.04-.75-.14-1.48-.32-2.21-.36-1.5,.49-2.47,1.76-1.79,2.08,1.11,4.17,.17,6.22,.43-2.57-.49-5.22-.14-7.81-.8-2.33-.59-4.59-1.59-7.16-1.44-1.04,.06-2.72-.9-2.43-2.27,.26-1.29,1.17-2.32,3.18-2.27,2.15,.05,4.4-.46,6.72-.69-2.4,.19-4.19-.36-5.08-2.7,.29-2.03-2.23-2.92-2.02-4.92,.34-.63,.9-1,1.55-1.24,.59-.39,2.05,1.12,1.9-.89q1.25-1.93,3.38-.82c.44,.23-.37,.4,.1,.31,.28-.05,.56-.44,.84-.66,1.16-.89,2.38-1.34,4.11-.2-1-1.82-2.24-2.56-3.79-3-1.1-.32-2.73-.1-2.87-1.76-.12-1.46,1.11-2.08,2.27-2.6,.57-.26,1.06-.62,1.54-1.01,1.32-1.35,2.75-2.61,3.06-4.62Z"/>
  <path class="cls-75" d="M239.4,.27c1.51,0,3.03-.01,4.54-.02,2.26,1.67,.75,2.78-.58,3.91-2.6,1.09,1.17,3.56-1.41,4.66,3.35-2.42,3.83-2.29,6.24,.73,.45,.56,1.71,.49,2.34,1.21,1.17,1.31,2.33,2.54-.55,3.32-.78,.21,.66,.51,.4,1.03,.21,.99,.12,2,.15,2.97,.05,1.84-3.31,3.54-4.42,2.11-1.85-2.37-3.17-.64-4.17,.2-1.32,1.1-2.37,1.08-3.7,.45-.33-.1-.64-.23-.95-.39-3.96,.07-7.93-.77-12.56,.44,2.94-.1,5.07-1.24,7.44-.05,3.69,1.85,3.9,2.59,.73,5.75-.33,.11-.67,.12-1.01,.05-.97-.41-1.78-1.45-3.03-.82-.75,1.77-1.87,2.14-3.41,.89-3.26,.04-6.65-1.54-9.7,.86-.29,.23-.77,.51-1.01,.37-2.36-1.38-4.24-1.81-6.27,.95-.71,.96-1.34-1.06-1.53-2.06,.1-.17,.17-.32,.17-.42-.09,.18-.24,.32-.46,.41-1.82,.58-4.09-.24-5.27,2.11-.59,1.17-1.56,.31-2.16-.24-1.22-1.1-2.63-1.87-4.07-2.63-.99-.93-1.2-1.66,.2-2.54,2.26-1.41,4.65-1.9,6.88-.47,1.63,1.04,2.38,.37,3.29-.72,1.73-.61,3.55-.2,5.3-.49,.64,.66,1.29,1.14,1.91,.11-.6,.21-1.32,.6-1.96-.15-.55-4.58,1.05-5.95,6.19-5.21-.78-.65-1.58-1.25-1.18-2.36,.43-1.18,1.46-1.19,2.49-1.18,2.83,.02,5.64,.64,9.38,.54-1.82-1.04-1.78-2.22-4.18-1.9-2.94,.4-6.84,.11-9.71-2.1-1.61-1.24-.03-1.8,.73-2.48,3.62-.98,6.67-3.85,11.52-2.63-1.68-2.37-3.45-1.81-4.87-2.17-1.08-.27-2.79,.05-1.98-2.05,4.01,0,8.02,.01,12.03,.02,2.73,.23,5.46,2.45,8.2,0Z"/>
  <path class="cls-73" d="M304.65,27.12c-1-.91-1.99,.95-2.99,0-.6-.53-.36-1.98-1.6-1.71-2.27,.49-4.38-.58-6.62-.45-3.62,.21-4.21-.99-2.42-4.44,.64-2.18,3.49-.62,4.62-3,.72-1.53,3.8-.15,5.79-.04-.01-1.28-.16-2.15-2.1-3.02-3.49-1.56-6.79-3.87-8.86-7.42-1.17-2.01-.62-2.89,2.2-3.31,1.54-1.46,3.09-2.9,5.21-3.47,3.02,0,6.04,0,9.06,0,.68,.37,1.23,.78,.52,1.61-1.27,.6-2.67,1.07-2.9,2.74,2.98,.85,2.94-1.38,3.3-3.23,1.79-1.06,4.01,.1,5.76-1.12,1.01,0,2.01,0,3.02,0,1.95,2.49,4.53,4.01,7.51,4.93-.16,2.25-2.55,3.91-1.42,6.67,.41,1-1.36,2.03-2.99,2.13,1.43,.85,2.49,1.82,1.84,3.56-.34,.9-1.05,1.38-1.99,1.41-1.38,.04-.88-1.36-1.28-2.07q.14,2.24-1.34,3.96c1.43,.93,3.03,1.08,4.61,.82,3.13-.52,3.63,.68,2.3,3.25-5.15,1.72-10.31,3.63-15.81,1.75-1.35-.46-2.35-.21-3.43,.44Z"/>
  <path class="cls-59" d="M195.17,25.63c2.54-.18,3.83,1.78,5.39,3.26,.99-4.19,4.16-2.41,6.61-2.51h0c.35,.72,.61,1.99,1.06,2.06,1.19,.18,.91-1.07,1.24-1.82,.86-1.95,2.65-2.15,3.59-.5,1.05,1.85,1.9,1.35,2.77,.36,1.35-1.54,2.68-2.16,4.49-.86,1.14,.82,2.17,0,3.17-.32,1.24-.39,2.22-.64,2.44,1.07-1,1.17-2.47,1.69-2.21,4.06,.13,1.17,0,2.52,.4,3.9,.51,1.77-.18,3.28-2.38,3.24-2.45-.04-3.79,.76-4.35,3.43-.55,2.67-2.49,1.16-4.04,.63,1.48,2.04,4.64,.02,5.86,2.47,.03,.06-.09,.21-.16,.29-.15,.17-.37,.16-.62-.01-1.04,.66-4.15-1.61-3.01,2.13-6.23,0-12.47,0-18.7-.01,.55-2.07,2.33-1.33,3.65-1.54,3.1-.49,3.5-1.09,2.38-3.95-.09-.23-.27-.44-.3-.68-.15-1.47,.49-2.64,1.42-3.7-3.23-.59-.26-2.4-.61-3.52-1.35-.45-2.46,.68-3.84,.34,1.55,1.25,3.35,2.34,3.48,4.35,.2,3.04-1.4,3.99-4.7,3.46-2.07-.33-4.21-.14-6.3-.19-3.09-.07-5.5-1.12-7.45-3.43-.26-.77-.13-1.4,.62-1.82,1.76,.15,3.56,.53,5.55-1.16-2.46,1.49-4.3,2.13-5.17-.97-.17-.6-1.31-.65-1.68-1.38,1.54-2.83,4.9-3.08,7.09-5,.61-.24,1.23-.42,1.84-.64,.87-.25,1.64-.76,2.5-1.04Z"/>
  <path class="cls-29" d="M249.91,15.13c-.69-.99-1.66,.6-2.43-.48,.47-1.84,2.56-.89,3.89-1.78-1-1.24-1.76-2.45-3.49-2.37-.38,.02-1.36,.04-.93-.39,1.24-1.26,1.19-1.41-.57-1.88-1.66-.45-2.61,.03-3.41,1.2-.36,.53-.09,1.76-1.14,1.45-1.16-.35-.56-1.34-.4-2.19,.37-1.92,1.15-3.97-1.43-5.4,1.66-1.03,2.1,1.04,3.17,.61,2.6,.19,1.62-3.31,3.73-3.62,.51,0,1.02,0,1.53,0,.76,1.41,3.86-.59,3.6,2.45-.02,.21,.75-.23,1.15-.37,1.3-.44,2.21-1.55,3.47-2.08,2.01,0,4.02-.01,6.03-.02,.55,.51,.91,1.23,.67,1.88-.54,1.43,.73,.65,1.07,.98,.61,3.41,4.41,3.07,6.21,5.23,.91,1.09,1.78,1.52,.73,2.91-.77,1.02,.17,2.16-.02,3.27-.16,.92,.52,1.31,1.39,1.33,.39,0,.77-.13,.94-.49,.41-.86-.04-1.47-.78-1.8-1.39-.61-1.99-1.34-1.03-2.85,1.18-1.85,2.1-.19,3.12,.11,.47,.14,.9,.42,1.27,.69,.32,.25,.39,.17,.2-.26-.06-.91,.04-1.78,.4-2.59,.32-.72,.77-1.35,1.63-1.31,.9,.04,1.31,.76,1.34,1.53,.09,2.69,1.06,3.41,3.43,1.79,.96-.65,1.96-.61,2.12,.91,.1,.92,.63,1.58,1.1,2.32,1.13,1.78,.5,2.92-1.51,3.01-1.32,.06-2.39,.37-3.36,1.18,.1,.31,.34,.57,.55,.47q3.27-1.59,3.41,3.55c-.61,3.16-2.98,1.68-4.19,1.11-1.93-.9-3.04-.45-4.18,.98-1.71,.12-2.76-2.41-4.76-1.18-.52-.12-.87-.42-1.01-.94,0-.59-.3-.99-.88-.83-2.17,.61-3.4-.4-4.54-2.15-.76-1.17-1.32-2.12-3.21-.18-2.11,2.17-5.28,4.01-8.95,3.24-1.22-.26-2.24-.83-2.39-2-.17-1.32,1.06-1.39,2.05-1.6,1.74-.37,3.42-.96,4.56-1.8-2.87,1.62-5.03-2.78-8.13-1.62Z"/>
  <path class="cls-19" d="M276.91,12.14c-1.02,.06-1.93-.26-2.86-.67-.55-.24-.99-1.94-1.9-.29-.84,1.54,.44,1.25,1.16,1.41,1.37,.31,2.3,.76,1.58,2.48-.27,.65,.66,1.95-.88,1.85-1.4-.09-3.76,.51-3.88-1.09-.12-1.62-.24-3.69,.87-5.32,.18-.26,.19-.62,.34-1.14-1.38-.26-3.65,.71-3.08-2.08,.04-.18-.89-.85-1.16-.75-4.33,1.69-2.65-1.7-2.94-3.42,1.63-1.86,3.66-2.58,6.13-2.41,1.72,.12,3.55,1.08,5.14-.46,2.26,0,4.51,0,6.77,0,2.73,.8,5.63,.61,8.37,.74,3.18,.14,3.55,1.13,2.85,3.65-.92,1.46-1.85,.14-3.53-.23,3.47,5.25,7.06,9.16,13.1,9.99,.53,1.21-2.44,2.3-.05,3.69,1.03,.6-.18,.79-.58,1.04-1.13-1.8-2.97-.51-4.41-1-.78-.26-1.6-1.11-2.36-.15-1.01,1.29,1.21,1.29,1.02,2.53-1.45,.62-3.6-2.33-4.7,.61-.38,.35-.86,.35-1.33,.38-1.44-.21-1.56,1.15-2.24,1.87-1.58,.6-1.81-1.67-3.19-1.49-2.03-1.16,.52-2.61-.46-3.97-.89-.1-1.05,1.04-1.7,1.41-1.05,.61-2.35,.43-2.92-.63-.69-1.26,.35-1.81,1.45-1.75,1.24,.07,2.09-1.98,3.57-.62,.1,.09,.91-.34,1.13-.69,.45-.72-.17-1.11-.71-1.43-1.29-.79-1.93-1.77-.28-3.83-5.03,3.69-5.33,3.55-6.76-2.5-1.81,1.01-.92,2.93-1.57,4.26h0Z"/>
  <path class="cls-72" d="M47.43,46.5h-9.75c-1.3-1.33,1.85-2.19,.36-3.53q-2.85-2.47,.18-5.55c-2.33,2.38-3.34,2.45-8.04,.37,.27,1.57,.18,3.04-1.55,3.42-1.25,.27-2.5,.35-3.13-1.2-.62-1.51-1.97-.53-2.97-.79-.84-.22-1.93-.18-2.13-1.19-.18-.94,.66-1.53,1.41-2.03,.29-.19,.59-.36,.9-.51,1.95-2.29,4.48-2.28,7.08-1.67,1.56,.37,2.94,.5,3.89-1.07,.07-.99-.25-1.98,0-2.94,.38-1.49,1.16-2.92,2.6-3.36,1.76-.53,1.46,1.55,2.24,2.32,.26,.26,.64,.36,.99,.46,2.09,.06,4.16,.31,6.2-.54,1.87-.78,3.26,.7,5.51,1.58-2.27-2.04-4.38-3.51-6.62-3.12-3.05,.54-3.72-.55-3.58-3.17,.03-.45-.42-.89-.56-1.36,.34-2.38,2.06-1.48,3.35-1.32,1.4,.17,2.62,1.26,4.15,.86,.69,.09,1.34,.31,1.97,.59,1.78,1.7,3.67,3.15,6.36,2.75,1.35-.19,2.53-.12,2.62,1.66-.56,1.12-.56,1.11,.34,1.44,1.14,.42,1.77,1.36,.97,2.28-1.48,1.69-2.94,3.68-5.84,3.16,.23,1.59,3.44,.99,2.42,3.35-.69,1.59-2.05,1.9-3.77,1.99,2.81,.9,4.72,4.06,8.12,2.28,.62-.33,1.45,.27,1.67,1.11,.22,.81-.03,1.52-.82,1.84-.81,.33-1.62,.63-2.35,1.11-4.1,.52-8.22,1.44-12.23-.51-.76-.37-.12,.18-.09,.23,.18,.34,.23,.69,.11,1.06Z"/>
  <path class="cls-39" d="M138.96,46.5c-1.26,0-2.52,0-3.79,.01-.88-1.15-.15-2.08,.38-3.05,.22-.3,.42-.65,.73-.84,1.43-.89,.32-3.51,2.47-3.79,1.74-.23,3.26,2.06,4.24,1.76,3.14-.95,6.22,.91,9.23-.47-3.43,1.24-6.55-1.05-9.93-.71-.9,.09-2.01-.49-2.16-1.69-.16-1.19,.68-2.05,1.65-2.14,2.38-.22,3.42-2.24,5.1-3.37-1.24-1.18-2.81-.57-4.23-.81-1.12-.36-1.36-1.33-1.63-2.31-1.01-3.71-.49-4.54,3.24-3.94,3.38,.54,6.62-1.01,9.95-.24,.25,.06,.5-.02,.59-.27,.54-1.65,1.48-2.4,2.99-1.08,1.77,1.55,3.65,3.18,3.11,5.92-.23,1.17-1.01,2.01-2.46,1.61-.78-.21-1.49-1.04-2.4,0,1.75-.24,3.41,1.84,5.31-.31,.6-.68,1.66-.29,1.92,.87-.94,2.59,1.04,3.97,2.48,5.37,.78,.76,1.84,1.64,.82,2.19-2.99,1.62-.76,3.23-.33,4.86-.72,1.23-2.1,1.14-2.94,.76-2.02-.91-2.61,.41-3.39,1.67-1.76,0-3.53,.01-5.29,.02-5.22-.43-10.45-1.8-15.67-.01Z"/>
  <path class="cls-10" d="M82.69,.24c.29,.62,1.66,.86,.58,1.95-1,1.01-1.9,2.13-2.84,3.2-2.03-1.23-4.33-1.42-7.16-1.57,2.38,1.5,3.06,3.14,2.36,5.78-.78,2.92-1.78,4.06-4.37,2.53-1.89-1.12-2.91-.69-3.99,.81-1.6,1.29-3.09-.47-4.66-.16-2.19,.61-3.36,.09-2.68-1.77-.04,.34,.23,1.44-.93,2.07-.55-.02-.93-.32-1.24-.74-.12-1.47-1.41-1.32-2.33-1.68-1.07-.93-2.1,0-3.14,0-1.58,0-4.46,2-4.05-2.06-.62-.03-1.23-.9-1.29-.83-2.16,2.36-3.79-.61-5.75-.61-2.3,0-1.71-1.5-.61-2.65q-3.84,2.96-9.89-1.36c-.16-4.01,2.96-2.09,4.63-2.3,.85-.11,1.74,.47,2.35-.59,1.27,0,2.53,0,3.8,0,3.13,.24,6.09,1.47,9.43,.45,2.78-.85,2.68,1.5,2.5,3.51,.53-2.43,2.57-3.14,4.5-3.98,1.74,0,3.49,.01,5.23,.02,.32,.86-.73,1.58-.27,2.6,1.12-.6,.82-2.09,1.82-2.62,6,0,12-.01,18-.02Z"/>
  <path class="cls-68" d="M39.19,30.13c-2.26,.02-2.13-1.75-1.86-3.98-2.47,2.52-4.26,4.3-1.9,6.98-1.75,.54-3.45,.96-4.2-1.43,.96-2.75-2.63-2.27-2.95-4.11-1.01-1.2-1.46-2.62-1.54-4.16-.07-.79-.46-1.42-1.03-1.96-.2-.26-.29-.55-.27-.85,.04-.21,.27-.46,.24-.58-.07-.21-.3-.12-.52,.1-.41,.42-.91,.7-1.49,.84-1.17,.2-2.71-.01-2.97-.94-.96-3.47-4.08-5.88-4.48-9.56,.49-.7,1.29-1.16,1.59-2.07-.66,.37-.59,1.29-1.26,1.6-1.22,.71-2.46,.45-2.46-.92,.01-1.91-1.46-2.35-2.42-3.34-.83-1.73,.71-1.62,1.57-2.04,.57-.2,1.37-.29,1.37-1.02,0-.84-.84-.71-1.42-.85-1.4-.34-3.35,.7-4-1.57,3.24,0,6.48,0,9.72,0,2.5,4.01,6.31,4.57,10.54,4.02,1.03,.51,1.72,1.3,1.99,2.43-.97,2.65-1.14,4.7,2.61,5.21,1.68,.23,1.93,2.15,1.81,3.67-.16,2.01,.03,3.96,.52,5.9q-2.13,2.88-5.51,.74,3.12,2.24,5.58,2.46c5.1,.45,5.31,.86,2.72,5.44Z"/>
  <path class="cls-76" d="M59.43,45.12c.06-.11,.16-.22,.16-.34,0-1.76,3.49,.02,2.43-1.99-.82-1.55-2.31,.06-3.36,.83-.19,.14-.45,.37-.62,.33-.32-.08-.82-.29-.85-.52-.53-3.16-6.09-1.58-5.52-5.75,1.06-.91,1.3,.14,1.8,.59,.94,.86,1.61,0,2.25-.47,.34-.25,.69-.91,.6-1.27-.38-1.5-1.07,.01-1.61-.09-2.78-.53-.25-2.78-1.47-3.96,3.11,2.14,4.46-.8,6.37-1.86,.2-.11,.31-.69,.2-.96-.2-.51-.6-.7-1.14-.28-.37,.28-.83,.47-1.27,.65-.05,.02-.35-.31-.33-.46,.13-1.07,.22-2.2,1.61-2.46,3.21-3.33,3.7-3.28,6.04,.89,.27,.48,.54,.35,.83,.38,1.2,.09,2.77-.21,2.55,1.73-.2,1.85-1.53,2.62-3.51,2.63,.69,1.77,2.06,1.59,3.37,1.47,3.31-.3,4.12,.66,3.46,4.16-1.91,1.63-.88,3.87-.43,5.39,.9,3,2.55-1.63,3.95-.04,.91-2.45,1.48-.94,2.09,.17,1.13-.72,2.51,2.69,3.53-.22,.19-.55,.75-.67,1.16-.21,.83,.93,1.01,1.96,.21,3.03-7.02,0-14.03,0-21.05-.01-.44-.51-1.94,.1-1.46-1.38Z"/>
  <path class="cls-7" d="M210.92,21.88c-1.52,1.85-3.45,.86-5.25,.76-.53,.43-1.16,.46-1.42-.14-.26-.61,.33-.99,.85-1.25,.33-.14,.68-.24,1.04-.31,.87-.11,1.7-.37,2.31-1.01,.42-.44,.74-1.05,.43-1.67-.26-.53-.79-.36-1.28-.33-3.08,.18-4.96-1.45-6.12-4.14-.66-1.61-2.82-2.59-1.99-4.85,.16-.44-.08-1.24-.55-1.21-2.12,.14-4.38,.74-4.78-2.44-2.11,.97-3.87-1.66-6-.58-.64-.77-1.03-1.59-.52-2.59,2.41-2.1,5.53-1.09,8.24-1.87,2.25,0,4.5,0,6.75,.01-.25,2.56-.33,4.24,3.43,4.56,2.77,.24,6.21,.48,8.6,2.81-.04,.55-1.31,1.13-.63,1.3,2.13,.52,4.07,2.68,6.55,1.02,.36-.24,.81-.46,1.36-.09,1.91,1.26,1.93,1.23,2.61-1.62,.61,3.08,3.65,3.6,4.26,6.56-3.22-.23-6.23-.58-9.24-.59-1.04,0-2.62-1.6-3.18,.35-.54,1.88,2.12,.71,2.5,2.25-2.97,1.15-8.13-.86-7.99,5.07Z"/>
  <path class="cls-15" d="M323.41,24.88c-.65-.57,2.81-4.12-1.61-2.12-1.13,.51-2.9-.15-4.3-.53-1-.27-2.59-.24-2.69-1.58-.1-1.52,1.47-.82,2.29-1.11,1.11-.39,1-1.2,.93-2.11-.04-.5-1.6-1.06-.02-1.49,.6-.17,1.26,.01,1.1,.94-.16,.92-.38,1.96,1.16,1.22,.97-.47,.98-1.37,.68-2.25-.38-1.12-2.74-.4-2.26-2.36,.42-1.71,2.39,.89,2.81-1,.1-.44,.75-1.09,.66-1.18-3.31-3.34,.96-4.09,1.99-5.92,.16-.32,.37-.61,.63-.85,1.77-2.71,4-4.5,7.5-3.66,0,1-.02,2.01-.02,3.01-.94,.17-1.07,.61-.79,1.64,.51,1.9-.3,3.99,.8,5.82,0,.52,0,1.04,0,1.56-.83,2.48-1.21,4.96,0,7.43l.02,5.29c-1.43,.57-1,2.39-2.14,3.15-1.87-.61-3.61-1.56-5.55-1.98-.95-.21-2.11-.48-1.19-1.93Z"/>
  <path class="cls-48" d="M195.89,.26c-2.74,.71-5.48,1.42-8.22,2.13-2.08,1.53-.36,1.78,.75,2.25,1.41,.31,2.85-3.28,4.46,.24,.49,1.06,1.71-1.81,3.24-1.39,.84,1.4-2.18,1.37-.99,3,1.12,1.53,2.11,.32,3.18,.18,1.66-.23,3.3-.07,2.08,2.17-1.28,2.34,1.94,2.93,1.53,4.8,.12,.73,.4,1.64-.67,1.77-1.42,.17-2.84-.32-3.63-1.48-.57-.84-.53-1.15-1.03-.02-.25,.56-1.09,.86-1.6,.34-1.5-1.51-2.69-1.5-3.95,.31-.32,.46-1.34,.23-1.73-.17-2.51-2.65-6.09-1.77-9.11-2.68-3.79-1.14-7.67-2.28-11.67-2.76-2.58-1.09-1.85-2.57-.5-4.14,4.55-2.91,9.61-.7,14.52-1.73-1.01-1.71-3.58-.15-4.58-1.85-.23-.31-.25-.63-.07-.97,5.99,0,11.98,0,17.97,0Z"/>
  <path class="cls-20" d="M111.93,17.38c1.63-1.56,3.42-3,4.85-4.72,1.03-1.24,3.3-2.78,1.72-4.42-1.5-1.55-3.91-.42-5.72,.47-.5,.25-.75,1.46-1.59,.93-.7-.44,.4-1.01,.31-1.56-.04-.28-.42-.72-.64-.72-.93,0-1.05,.89-1.4,1.5-1.37,2.42-4.33,2.8-6.43,.91-.54-.49-.88-.96-.51-1.53,.21-.33,.97-.65,1.26-.51,6.31,3.05,3.19-2.85,4.41-4.61-.56-.96-.43-1.92,0-2.88,1.5,0,3,0,4.5,0,.55,1.41,1.59,1.14,2.73,.92,1.54-.29,3.07-.82,4.68-.57,1.02,.49,2.96,.17,2.54,2.01-.41,1.81-2.35,1.48-3.73,1.8q2.24,.46,4.94-2.64c1.68-.73,3.51-.81,5.27-1.22,.59,.04,1.01,.32,1.19,.9,.01,3.1-2.57,3.58-4.65,4.75,2.2-.94,4.2-2.19,6.32,.46,.96,1.2,3.29,.52,4.99,.69,3.28,.33,3.48,.7,1.55,3.73-1.08,.82-2.49,1.07-3.45,2.14-.56,.63-1.41,.7-1.81-.23-1.25-2.89-2.93-1.23-4.48-.43-.63,.33-1.34,1.61-1.65,1.26-2.36-2.71-4.09,1-5.77,.5,1.42,.03,2.78,.81,2.9,2.71,.09,1.57-1.01,2.12-2.49,1.92-1.06-1.27-2.43-1.96-4.03-2.4-1.76-.48-.7,1.15-1.28,1.5-1.66,.79-3.19,.66-4.53-.68Z"/>
  <path class="cls-24" d="M323.41,24.88c.43,1.86,2.76,1.71,3.32,1.64,1.99-.25,2.42,1.25,3.43,2.11,1.22,.63,1.29,2.09,2.13,2.99,0,3.24,0,6.48,0,9.73-1.35,.09-1.84-.98-1.84-1.89,0-2.6-1.14-3.6-3.69-4.08-1.92-.37-3.43-1.8-5.53,0-1.45,1.24-3.53,.83-5.32,0-.33-.09-.66-.29-.98-.26-1.61,.15-2.75-.91-3.25-2-.73-1.63,1.56-1.54,2.18-2.74-3.09-1.09-6.15-2.17-9.21-3.26,1.28-.71,1.87-3.83,4.22-.89,.62,.78,2.88,.62,4.26,.32,2.25-.48,3.03-.64,3.81-.08,1.81-2.34,4.41-1.11,6.46-1.6Z"/>
  <path class="cls-72" d="M.31,38.36c0-6.25,0-12.49,.01-18.74,.21-.48,.87-1.06,1.02-.8,.99,1.75,1.07-.77,1.71-.31,.34-.02,.67,.05,.97,.2,2.66,1.99,2.64,1.97,.99,4.15-.21,.28,.41,.22,.62,.35,3.16,1.94,3.14,3.32-.11,5.6-1.06,.2-2.49-.76-3.1,1.02,1.23,.63,1.92-.97,3.02-.69,4.86,3.05,10.44,2.33,15.76,2.98,1.06,.13,2.57-.58,3.09,.6,.62,1.41-.49,2.52-1.61,3.4h0c-3.51,1.03-7.05,2.21-9.99-1.46,.35,.9,1.04,1.76,0,2.45-1.51,.98-2.98,.58-4.41-.29,.54,.62,1.65,.97,1.27,2.16-.38,.87-1.27,1.62-1.96,1.17-2.26-1.46-5.07-.39-7.28-1.8Z"/>
  <path class="cls-17" d="M315.91,35.38c2.78-.45,5.85-.02,7.89-2.72,.24-.32,1.27-.33,1.25,.13-.12,2.58,1.93,1.69,3.11,1.97,2.02,.47,3.99,.68,2.91,3.67-.39,1.08,.44,2.1,1.22,2.92,0,.27,0,.53,0,.8-1.48,4.18-5.09,3.93-8.49,4.09-2.65,.08-5.19-.46-7.66-1.38-.08-.16-.16-.32-.23-.48,.47-1.09,1.88-.36,2.47-1.24-.32-1.39-2.11-1.79-2.21-3.35,1.18-1.19,2.1,1.2,3.27,.24,.6-.49,2.21,.48,1.87-1.43-.29-1.61-1.05-1-2.08-.85-1.68,.25-4.37,1.39-3.32-2.38Z"/>
  <path class="cls-69" d="M13.69,4.64c-.45,.34-1.63-.75-1.5,.75,.66,1.11,2.1,2.23,.8,3.57-1.65,1.7-3.06,0-4.47-.82-.44-.17-.31,.73-.16,.25,.05-.17,.19-.22,.31-.08,1.41,1.6,3.72,1.62,5.25,3,1.03,.93,2.2,2.02,1.36,3.45-.71,1.22-2.59,1.12-3.35,.54-1.76-1.36-3.33-.33-4.98-.23-.94-.2-1.87-.18-2.76,.26-.33,.08-.65,.06-.97-.03C1.07,13.21,1.26,10.21,.31,7.65c0-.26,0-.52,0-.78,.71-.85,.26-1.87,.35-2.8C.91,1.57,1.91,.06,4.65,.26c.77,0,1.54,0,2.31,0,1.49,.71,2.69,1.65,4.73,1.18,2.03-.47,2.47,1.39,2,3.21Z"/>
  <path class="cls-44" d="M184.67,37.63c4.22,2.43,8.67,3.44,13.5,2.3,.11-.03,.26,.06,.37,.03,1.26-.34,1.85,3.3,2.94,.94,1.13-2.43,.54-5.25-2.49-6.63-.31-.14-.66-.2-1.01-.52,2.35-.33,4.42-3.69,6.89-1.07,1.62,1.73-1.6,1.52-1.91,2.8,.84,.92,2.55,1.16,2.43,2.91-1,.93-1.15-1.56-1.79-.62-.45,.66-1.02,1.61-.33,2.74,2.16,3.52,1.15,5.23-3,5.39-1.21,.05-2.52-.4-3.57,.61-1.77,0-3.54,0-5.31,0-2.44-.7-5.02-.87-7.38-1.91-.36-2.3,1.18-4.59,.03-6.9,0,0,.17-.13,.27-.14,.12-.01,.24,.04,.36,.07Z"/>
  <path class="cls-38" d="M276.91,46.5v-6.21c1.09,2.33,1.57,3.9,3.26,4.64,1.91,.83,3.32,.17,4.8-.81,.94-.62,1.86-.33,2.84,.03,1.16,.42,2.61,0,2.62-1.09,0-.72-.13-2.58-1.84-2.63-.82-.02-1.61-.11-1.41-1.14,.13-.68,.81-.88,1.5-.65,3.2,1.1,3.65-1.42,4.25-3.41,.26-.88-.25-2.2,1.11-2.29,1.11-.07,2.85,.06,3.26,.73,.62,1.03,.98,1.93,2.1,2.73,1.22,.87-.37,1.61-.94,1.44-1.77-.53-3.59,.32-3.83,1.42-.38,1.74,1.75,1.41,2.89,1.9,.31,.13,.27,1.12,.38,1.71-.64,1.13,.14,2.55-.75,3.62-6.75,0-13.5,0-20.25,0Z"/>
  <path class="cls-34" d="M214.67,7.64c-1.96,.48-3.75-1.84-6.06,.04-1,.81,.3-1.74-.76-2.01-.74-.18-1.54-.1-2.34-.24-5.12-.84-5.14-.72-2.89-5.16,.52,0,1.03,0,1.55,0,1.61,1.54,3.43-.4,5.09,.31,1.08,.4,2.33,.34,3.23,1.22,.49,.43,.75,.97,.78,1.62,.12-.43,.15-.89,.42-1.28,1.45-.33,2.6-1.29,3.93-1.89,.52,0,1.03,0,1.55,0,1.06,2.28,3.19,.98,4.79,1.32,1.45,.31,2.98,.64,3.09,2.12,.18,2.36-2,1-3.05,1.49-1.76,.83-4.8-1.33-5.49,2.34-.03,.15-2.53-.57-3.86,.11Z"/>
  <path class="cls-35" d="M129.93,1.63c-.25-.25-.51-.51-.76-.76-.25-.14-.34-.27-.25-.41,.08-.14,.17-.2,.25-.2,10.75,0,21.5,0,32.24,0,.79,.95,.21,1.7-.36,2.45-2.7,1.41-5.58,.3-8.36,.39-1.33,.04-3.15,1.59-4.35-.45-2.29-.47-3.93,.45-5.07,2.4-.61,.08-1.51-.41-1.78,.05-1.36,2.25-3.22,1.47-4.37,.33-2.07-2.06-5.18-1.85-7.2-3.8Z"/>
  <path class="cls-60" d="M183.93,44.37c.91,1.08,3.67-4.09,3.36,1.23,2.12-2.51,3.13-.85,4.1,.9-10.49,0-20.98,0-31.46,0,.13-1.27,.26-2.55,.44-4.24,1.5,2.17,3.63,1.82,5.56,2.12,6-.48,12-.18,18.01-.01Z"/>
  <path class="cls-13" d="M160.66,2.38c.25-.71,.5-1.41,.75-2.12,.5,0,1,0,1.5,0,.43,.75,1.35,1.37,.69,2.43-.66,1.19-.31,1.55,.91,1.05,.64-.26,1.09-.87,1.78-1.11,.8-.19,1.53-.11,2.14,.51,.42,.81,.32,1.55-.26,2.24-.28,1.13-1.61,2.52,.74,3,.1,.12,.21,.23,.31,.35,.29,.72,.19,1.53,.55,2.23,.12,.3,.16,.61,.13,.94-.34,.85-.9,1.36-1.89,1.2-.79-.31-1.45-.84-2.14-1.33-.78-.59-1.52-1.23-2.4-1.69q-4.67-2.42-2.82-7.71Z"/>
  <path class="cls-43" d="M.31,38.36c2.42,.25,5.11-1.27,7.23,1.17,.17,.2,1.08-.25,1.65-.39,.71-.6,1.26-.34,1.74,.31,.11,.7-.53,1.99,1.15,1.47,.52,.1,1,.28,1.46,.5,.87,.53,1.45,1.11,.35,1.98q-3.21,2.83-7.22-.19c-.05-.04-.16-.18-.32-.17-1.75,.01-3.71-1.08-5.11,.91-.36,.05-.68-.05-.96-.29,0-1.76,0-3.53,0-5.29Z"/>
  <path class="cls-56" d="M297.16,46.5c.11-1.24-1.57-2.84,.75-3.62,0,0,0,0,0,0,1.57,1.5,3.51,.43,5.25,.75,1.55,3.08,3.41,2.17,5.61,.65,1.09-.75,2.43-3.19,4.05-.19,.46,.86,2.09-.6,3.09,.29,0,0,0,0,0,0,.81,1.08,.23,1.67-.74,2.13-6,0-12,0-18,0Z"/>
  <path class="cls-46" d="M.94,43.62c.57-1.05,1.14-2.11,1.81-3.35,1.12,.43,1.41,3.26,3.39,1.28,.48-.47,1.43,.03,1.87,.72,1.84,2.89,1.81,2.87,4.24,.79,.3-.26,.95-.13,1.44-.17,.87,.4,1.91,.55,2.43,1.51,0,1.62-1.55,1.46-2.41,2.09-2.02,0-4.04,0-6.06,0-1.39-.54-2.86-.74-4.3-.47-2.12,.39-2.63-.59-2.41-2.41Z"/>
  <path class="cls-63" d="M13.71,46.5c.74-.71,1.49-1.41,2.23-2.12,.33-.41,.78-.56,1.28-.59,1.06,.05,2.14,.55,3.17-.14,.77-.4,1.56-.65,2.43-.43,.69,.21,1.3,.55,1.9,.93,3.3,1.6,6.58,.47,9.87-.05,1.39-.08,2.26-1.78,3.85-1.22,.74,.08,1.58,.12,1.75,1.01,.14,.74-.52,1.05-1.12,1.17-.84,.16-1.29,.61-1.39,1.45-7.99,0-15.98,0-23.96,0Z"/>
  <path class="cls-58" d="M29.43,4.64c-3.37,2.39-6.32-.29-9.39-.9-1.66-.33-.41-2.39-1.11-3.48,1.76,0,3.52,0,5.28,0,2.21,.54,4.95-.09,6.13,2.75,.24,.84-.16,1.33-.9,1.63Z"/>
  <path class="cls-50" d="M130.68,46.51c-3,0-6.01,0-9.02,0-2.29-1.63-5.28,.44-7.53-1.41,.77-4.24,1.64-4.74,5.62-2.57,1.91,1.04,3.54,1.43,4.81-.52,1.63-2.5,2.65-.76,3.85,.31,.31,0,.62,0,.93,.03,.8,.12,1.56,.36,2.3,.69,.29,.16,.52,.38,.7,.66-.06,1.23-1.23,1.8-1.67,2.81Z"/>
  <path class="cls-50" d="M99.93,42.13c.98-2.14-1.95-.34-1.72-1.8,1.43-.91,2.67-2.35,4.71-1.95,.22,1.17,.49,2.33,1.21,3.31,1.29,2.26,4.22,.45,5.69,2.27,.29,2.5-2.14,1.64-3.14,2.55-2.02,0-4.03,0-6.05,0-.59-.42-1.73-.13-1.69-1.34,.48-.96,.27-2.15,.98-3.04Z"/>
  <path class="cls-4" d="M57.91,.25c-2.15,.93-2.07,4.51-5.08,4.35-1.4-.07-1.98-.39-.12-1.09,.63-.24,0-1.11-.12-1.66-.16-.7-.88-1.19-1.4-.78-3.53,2.82-6.53,.06-9.71-.81,5.48,0,10.95,0,16.43-.01Z"/>
  <path class="cls-26" d="M324.89,5.38c-.25,0-.49,0-.74,0-4,.49-6.24-1.6-7.51-5.12,1.27,1.15,2.53-.35,3.8-.01,.91,.36,1.87,.87,2.78,.9,4.11,.09,2.81,2.16,1.67,4.23Z"/>
  <path class="cls-80" d="M275.42,.26c.35,.86,1.13,2.37-.64,1.88-1.54-.43-3.22,.36-4.59-.75-.52-.42-1.57-.6-1.66-.21-.62,2.7-3.08,.99-4.37,1.95-.58,.2-1.57,2.06-1.5-.38,.02-.83,0-1.67,0-2.5,4.25,0,8.5,0,12.75,.01Z"/>
  <path class="cls-27" d="M.31,7.65c1.68,1.57,1.86,3.83,2.51,5.83,.25,.77,.43,1.3,1.12,1.65,2.23,2.39,2.23,2.74,0,3.75-.25,0-.5,0-.75,0-.75-1.06-1.9-.62-2.89-.78,0-3.49,0-6.97,0-10.46Z"/>
  <path class="cls-64" d="M293.41,4.64c-.62-1.22,.19-2.88-2.91-2.8-2.41,.07-5.83,.32-8.31-1.59,5.23,0,10.46,0,15.69,0-1.23,1.73-3.62,2.26-4.47,4.37Z"/>
  <path class="cls-49" d="M129.17,.26c0,.2,0,.41,0,.61-1.68,.72-3.34,1.53-5.24,1.51-1.06-.97-2.48-1.05-3.76-1.48-2.16-.1-3.99,1.12-6.04,1.53-2.53,.51-2.52-.42-1.46-2.18,5.5,0,11,.01,16.49,.02Z"/>
  <path class="cls-16" d="M324.89,5.38c.15-.98,.3-1.96,.5-3.3-2.44,1.39-3.44-.78-4.95-1.82,3.95,.2,7.97-1.04,11.84,.62-3.38,0-5.28,2.42-7.4,4.5Z"/>
  <path class="cls-62" d="M106.69,46.51c.07-2,2.56-.64,2.99-2.14,.17-.02,.33-.04,.5-.06,1.6,.97,2.47-1.6,4.03-.84,.22,.3,.22,.6,0,.89,1.33,1.38,3.02,.56,4.55,.76,1.14,.15,2.6-.45,2.91,1.4-4.99,0-9.98,0-14.97,0Z"/>
  <path class="cls-68" d="M30.18,3.14c-1.7-1.57-3.98-1.91-5.97-2.87,4.49,0,8.97,0,13.46,0-.12,1.06,.34,2.22-.67,3.46-1.02-1.29-1.54-3.18-4.02-2.43-1.27,.39-1.96,.51-2.06,1.83-.12,.09-.25,.17-.37,.26-.12-.08-.25-.17-.37-.25Z"/>
  <path class="cls-30" d="M138.96,46.5c2.23-1.25,4.28-3.83,7.06-.94,3.2-2.66,5.69,1.12,8.61,.95-5.22,0-10.45,0-15.67-.01Z"/>
  <path class="cls-11" d="M13.69,4.64c-.42-.89-.73-1.86-1.29-2.65-.35-.49-1.13-.47-1.71-.11-.88,.55,1.02,2.62-1.14,2.37-1.42-.16,.08-2.16-1.29-2.71-.52-.21-.87-.84-1.29-1.28,.75,0,1.5,0,2.25,0,1.3,1.12,2.88,.4,4.31,.64,1,.17,2.66-.61,2.77,.96,.1,1.41-.45,3.07-2.61,2.78Z"/>
  <path class="cls-32" d="M256.64,.27c-.49,2.75-3.22,3.53-4.95,3.79-3.24,.48,.96-1.86-.79-2.59-.92,.23-2.75,1.71-2.48-1.21,2.74,0,5.48,0,8.22,.01Z"/>
  <path class="cls-13" d="M177.92,.26c0,.2,0,.41,0,.61-2.58,2.74-5.86,1.78-8.97,1.7-1.13-.37-2.38,.02-3.49-.54-1.2-1.65,.6-1.31,1.18-1.78,3.76,0,7.52,0,11.27,0Z"/>
  <path class="cls-37" d="M59.43,45.12l1.46,1.38c-4.49,0-8.98,0-13.47,0,.04-1.68-3.67-.78-2.27-2.77,.69-.99,2.3,1.01,3.51,1.44,3.53,1.25,7.19,1.12,10.77-.05Z"/>
  <path class="cls-24" d="M323.41,45.88c3.52,.09,6.46-1.2,8.88-3.73,.74,3.46-.2,5.27-4.16,4.53-1.53-.29-3.15-.13-4.73-.17-.24-.14-.32-.28-.24-.43,.08-.14,.16-.21,.24-.21Z"/>
  <path class="cls-54" d="M240.93,46.51c.89-4.03,3.73-1.87,5.78-1.67,1.1,.11,2.11,1.08,3.17,1.67-2.98,0-5.97,0-8.95,0Z"/>
  <path class="cls-33" d="M99.18,45.12c.49,.46,.98,.92,1.46,1.39-4.48,0-8.96,0-13.43,0,1.82-2.57,4.81,.72,6.73-1.35,1.74-1.98,3.49-1.24,5.24-.03Z"/>
  <path class="cls-20" d="M105.92,3.15c-.17,.9,.5,2.15-.7,2.62-.83,.32-1.72-.29-2.27-.93-.87-1.01,.13-1.78,.55-2.62,.33-.64,.61-1.31,.92-1.96,.51,0,1.02,0,1.53,0,.89,.97,.45,1.93-.03,2.88Z"/>
  <path class="cls-36" d="M239.4,.27c-.84,2.65-2.67,3-4.67,1.58-1.13-.8-2.77-.19-3.53-1.59,2.73,0,5.46,0,8.2,0Z"/>
  <path class="cls-52" d="M255.93,46.5c.11-1.02-1.4-2.23-.03-2.99,1.31-.73,1.22,1.33,2,1.54,1.6,.42,3.83-1.36,4.72,1.45-2.23,0-4.47,0-6.7,0Z"/>
  <path class="cls-22" d="M332.27,11.36c-1.51-.79-1.36-2.21-1.37-3.58-.01-1.57,.49-3.41-1.85-3.88h3.21c0,2.49,0,4.97,0,7.46Z"/>
  <path class="cls-41" d="M64.69,.26c-.07,.6,.03,1.31-.26,1.79-.47,.79,.81,2.17-.78,2.45-1.12,.2-1.84-.66-2.3-1.52-.68-1.26,.45-1.68,1.25-2.21,.2-.13,.36-.33,.53-.5,.52,0,1.03-.01,1.55-.02Z"/>
  <path class="cls-23" d="M332.28,31.62c-1.7-.3-1.88-1.67-2.13-2.99,.47-1.17-.35-3.26,2.14-2.99,0,1.99,0,3.99,0,5.98Z"/>
  <path class="cls-78" d="M323.41,45.88c0,.21,0,.42,0,.64h-8.24c.25-.71,.49-1.42,.74-2.13,2.67-.36,4.87,1.69,7.51,1.49Z"/>
  <path class="cls-40" d="M4.65,.26C1.65,.89,1.26,3.27,1.16,5.7c-.03,.76-.11,1.1-.85,1.17-.04-.87,.01-1.75-.15-2.6C-.58,.4,1.32-.46,4.65,.26Z"/>
  <path class="cls-75" d="M212.41,2.4l-3-1.51c.61-.7,1.59-.1,2.24-.64,2,0,3.99,0,5.99,0-.94,1.23-2.25,1.81-3.71,2.14-.51,.01-1.01,.01-1.52,0Z"/>
  <path class="cls-22" d="M332.27,20.35c-2.19-2.07-2.18-5.38,0-7.43,0,2.48,0,4.96,0,7.43Z"/>
  <path class="cls-71" d="M.94,43.62c.69,.67,.31,2.57,2.5,1.54,.95-.45,3.08,0,4.2,1.35-1.62,.04-3.26-.07-4.85,.15-2.63,.37-2.94-.95-2.51-3.01,.22-.02,.43-.03,.65-.03Z"/>
  <path class="cls-32" d="M246.89,.26c-.46,.99-1.32,1.98-1.31,2.96,.04,3.75-1.42,1.2-2.41,.66,.58-1.14,2.06-2.09,.78-3.63,.98,0,1.97,0,2.95,0Z"/>
  <path class="cls-74" d="M222.16,46.51c-.37-3.84-.04-4.07,4.03-2.7-.73,1.36-2.7,1.2-3.26,2.7-.26,0-.52,0-.78,0Z"/>
  <path class="cls-9" d="M105.92,3.15c-.78-.97,.35-1.92,.03-2.88,.74,0,1.49,0,2.23-.01,.78,.96,.62,1.92,0,2.88-.75,.47-1.5,.47-2.25,.01Z"/>
  <path class="cls-25" d="M130.68,46.51c-1.69-2.11,.97-1.94,1.51-2.88,.29-.2,.6-.25,.94-.15,1.09,.73,1.57,1.72,1.26,3.03-1.24,0-2.48,0-3.72,0Z"/>
  <path class="cls-47" d="M313.63,.26c-1.55,2.35-3.96,1.01-5.97,1.38h0c-.24-.46-.48-.92-.72-1.38,2.23,0,4.46,0,6.69,0Z"/>
  <path class="cls-70" d="M211.64,.25c-.59,.77-1.44,.6-2.24,.64-.97,.08-1.96-.18-2.84,.58-1.68,1.46-2.07,.15-2.38-1.2,2.49,0,4.98,0,7.46-.01Z"/>
  <path class="cls-11" d="M.3,18.11c.68-.42,.89-1.61,1.97-1.33,1.12,.29,.84,1.3,.92,2.11-.64,1.5-2.02,.09-2.87,.74,0-.5,0-1.01-.01-1.51Z"/>
  <path class="cls-35" d="M166.64,.26c-.49,.46-.98,.92-1.48,1.38-.07,.45-.33,.76-.72,.97-.29,.05-.55-.03-.77-.22-.35-.67-1.66-1-.77-2.12,1.24,0,2.49,0,3.73,0Z"/>
  <path class="cls-50" d="M134.39,46.51c-.49-.96-.99-1.92-1.48-2.88,.76-.82,1.65-.8,2.6-.4,.14,.13,.27,.26,.41,.39-.25,.96-.5,1.93-.76,2.89-.26,0-.52,0-.78,0Z"/>
  <path class="cls-31" d="M237.93,46.52c.09-.66-.28-1.74,.73-1.75,1.04,0,.63,1.08,.73,1.73-.49,0-.98,.01-1.46,.02Z"/>
  <path class="cls-57" d="M249.91,15.13c2.34-.87,4.76-2.31,6.17,1.37,.29,.75,.73-.24,1.07-.44,1.11-.64,2.17-.91,4.02,.44-3.75,.37-5.55,3.84-9.09,3.02,.8,1.13,4.54,2.59,4.84,1.86,1.04-2.55,5.31-.59,5.34-4.34,.01-1.42,1.87-.9,2.77-.48,.84,.39,1.88,1.24,2.03,2.04,.61,3.33,2.57,1.8,4.2,1.32,.65-.19,1.32-.41,1.56,.3,.31,.9-.53,1.27-1.17,1.64-.54,1.08,.27,1.74,.78,2.48,1.07,.78,2.31,1.4,2.66,2.85,.08,.54-.03,1.03-.44,1.42-.62-.01-1.18-.14-1.5-.75-1.08-.73-1.38,.86-2.25,.75-.25,0-.5,0-.75,0-1-.98-2-.17-3,0-.25,0-.5,0-.75,0-2.72,.73-5.47,1.38-8.26,.44-2.27-.77-4.15,1.59-6.4,.72-1.34,.34-2.82-.87-4.09,.34-.25,0-.5,0-.75,0-3.63-1.26-6.96-3.97-11.24-1.36-1.7,1.04-2.43-1.02-3.01-2.39,.45-1.31,2.82-2.95,1.45-3.64-2.05-1.03-4.34-2.91-7.14-1.6-1.95,.91-2,.82-2.46-1.35,3.29-.17,6.59-.47,9.89-.42,1.14,.02,3.09-1.74,3.52,1.02,0,0,0,0,0,0,3.28,.73,5.15-2.67,8.19-2.79,.24,.73-1.21,1.85-.06,2.03,.79,.13,1.92,.16,3.04-.44,1.72-.93-.02-.99,0-1.38,.04-.9,.53-1.78,.83-2.67Z"/>
  <path class="cls-74" d="M232.66,26.38c1.6,1.92,3.14,1.92,5.22,.42,2.53-1.82,4.34,1.68,6.76,1.44,1.46-.15,2.82-.31,2.26,1.89,.37,1.81-.2,3.85,2.46,4.83,.95,.35-.84,1.32-1.55,1.82-1.44,1.04-3.23,.81-4.05-.38-2.26-3.31-3.23-3.32-5.66,.52-.06,.09-.21,.13-.39,.23-.8-.74,.42-2.28-1.23-2.81-1.62,2.14-3.17,4.79-6.71,3.6-.16-.06-.57,.13-.62,.29-1.61,4.96-8.31,2.08-10.18,6.61-.19-.15-.37-.31-.56-.46,.12-1.43-.99-.53-1.49-.75-.56-.24-1.19-.35-1.79-.49q-2.69-.63-2.41-3.41c1.13-.15,.94,.85,1.25,1.41,.53,.96,1.53,.73,2.28,.63,.79-.11,.52-.92,.48-1.54-.24-3.17,1.81-3.65,4.28-3.56,.92,.03,2.25,.72,2.32-.82,.04-.93,.86-2.59-1.34-2.8-1.73-.17-1.19-1.45-.45-2.11,1.47-1.32,1.56-1.23,.3-3.42,1.56,.14,2.5-1.46,4.08-1.15,2.33,1.88,1.32-1.26,2.25-1.49,1.43,.04,2.63,.67,3.75,1.49,.25,0,.5,0,.75,0Z"/>
  <path class="cls-61" d="M274.66,28.63c0-.5,0-1,0-1.5,.02-.6,.12-1.19,.46-1.71,.4-.7,1.13-.95,1.79-1.29,1.18-.94,.9-5.56,4.18-1.67,.12,.15,3.1,2.27,4.07-.58,2.9-3.29,1.64,1.71,3,1.5,.76-.74,.25-2.75,2.25-2.25,.5,0,1,0,1.5,0-.44,.86-2.2,1.26-1.05,2.66,.71,.87,1.65,.58,2.68,.34,2.63-.62,5.19,.78,7.98,.32,1.42-.23-.23,1.74,.14,2.68-1.76-1.95-2.24,1.13-3.9,.97-3.37-.32-6.74-.11-9.85-1.88-1.94-1.11-1.88,2.14-3.73,1.74-.89-.79,2.69-2.58-.1-2.58-1.14,0-3.72-3.31-4.33,.92-.43,2.96-3.16,2.05-5.1,2.33Z"/>
  <path class="cls-67" d="M251.41,29.38c4.92-1.82,9.98-.92,15-.75-1.53,3.51,2.63,4.49,3.2,7.29-2.47-.51-4.98-.68-5.46-5.01-2.2,5.56-4.36,.42-6.47,1.39-.46,1.07,.16,1.82,.85,2.55,.33,.34,1.94-.73,1.06,.88-.52,.94-1.44,1.03-2.09,.05-.74-1.13-1.34-2.35-2.09-3.68-1.17,.73-2.39,1.91-4.38,1.41,.77-1.06,2.43-2.16,.38-3.39-.17-.17-.22-.33-.17-.5,.06-.17,.11-.25,.17-.25Z"/>
  <path class="cls-38" d="M303.16,43.63c-.45,.21-.94,.37-1.35,.64-1.95,1.32-3.09,.43-3.9-1.39,2.05-1.83,3.79-1.52,5.25,.75Z"/>
  <path class="cls-74" d="M251.41,29.38v.75c-1.25,2.37-2.5-.64-3.75,0,.91-1.93,2.28-1.58,3.75-.75Z"/>
  <path class="cls-67" d="M270.91,28.64c.56-.81,.96-2.1,2.25-.75-.8,.09-.91,2.26-2.25,.75Z"/>
  <path class="cls-67" d="M267.16,28.63c1-.48,2-2.28,3,0-1-.36-2,.77-3,0Z"/>
  <path class="cls-21" d="M103.68,42.09c-.38-1.21-3.39-1.89-.75-3.72,0-.25,0-.5,0-.75,.62-.92,1.83-1.4,1.02-3.07-1.19-2.45,.34-5.05,.3-7.64-.03-2.18,2.24-1.23,3.58-1.19,1.75,.04,3.84,1.02,4.21-1.91,1.45-1.56,2.56-4.2,4.64-.2,.65,1.26,3.53,1.42,5.4,.82,1.38-.44,2.33-.73,2.84,.93-.09-1.31-.79-2.05-2.11-1.5-2.45,1.01-3.17-.15-3.28-2.32,.1-1.17,1.2-1.57,1.81-2.34,.11-.11,.22-.22,.34-.33,.75-.54,2.15-.57,1.94-1.9-.19-1.21-1.09-1.78-2.39-1.95-1.04-.14-2.01-.71-3.05-1.42,2.84-.48,6.33,.63,7.05-3.79,1.15,1.22-.05,2.96,1.87,3.52,.76-2.86,3.29-2.84,5.58-2.95,1.89-.09,.33,1.92,1.55,2.63,.76-1.47,2.36-1.92,3.94-2.39,2.68,.48,5.94-.1,7.56-1.23,3.8-2.64,4.65-.12,6.12,2.12,.11,.34,.14,.69,.1,1.04-1.17,2.66-4.26,.44-5.8,2.27-.3,.36-1.47-.27-1.39,.67,.36,4.25-2.33,3.7-5.01,3.35-.43-.06-.91,.34-1.39,.44-1.71,.12-3.42,.67-4.59,.22,1.31,.23,2.77,1.13,3.22,3.14,.42,1.92-1.62,1.49-2.3,2.42,.66-.05,1.19-.44,1.81-.54,2.36-.39,3.74-1.58,3.5-4.18-.05-.5,.31-.92,.82-1.12,1.13,.22,2.65,.39,3.14-.55,2.34-4.45,5.93-2.21,9.14-1.93,.98,.09,1.95,.41,2.91,.66,1.95,.58,4.11,.63,5.71,2.15,.41,.37,.72,.81,.83,1.37,.49,.32-.9,2.19,.61,1.24,1.8-1.13,2.33-.02,3.25,.84,.95,.48,2.44-.13,2.89,1.39,.13,1-.4,1.88-1.24,1.94-3.39,.25-3.73,2.77-4.19,5.26-.32,.23-.63,.23-.95,0-2.72-1.35-1.97,2.1-3.75,2.51-.81-2.49-2.24-3.16-4.05-.61-.72-.99,.09-1.72-.11-2.39-.78-2.61,.43-2.35,2.25-1.81,.88,.26,1.84,2.53,2.87,.23,.68-1.52-.42-2.72-1.23-3.78-.4-.53-1.85-.02-1.72-1.42,.06-.62-.24-.94-.84-.86-.63,.08-.81,.56-.62,1.1,.32,.9,.05,2.4-.62,1.99-4.04-2.52-8.18,.99-12.14-.5-.51-.19-.86-.97-1.8-.3,.88,1.55,.24,3.55,1.51,5.08,.82,.74,2.84-.15,2.7,1.83-.11,1.56-.88,2.39-2.73,2.26-.71-.05-2.22,.27-2.52,1.03-1.61,4.1-4.99,3.41-8.13,3.11-1.47-.14-3.04-.21-3.31-2.66-.25-2.23-3.44-2.81-4.41-.9-1.91,3.78-5.41,3.32-8.6,3.64-1.19,.12-2.5,.14-3.77-.23-.4,1.18,1.13,2.54-.3,3.62-2.7,.78-5.31,.01-7.94-.48Z"/>
  <path class="cls-65" d="M71.43,38.38c-.46-2.15-.24-5.03-4.03-2.93-.85,.47-2.34-1.07-3.65-.3-1.82-4.18,4.12-2.5,3.82-5.79-1.54-.1-4.3,.96-3.32-2.67,.2-.74-1.66-1.25-2.85-.75-.91,.38-1.81,.79-2.71,1.18-.43-1.2-1.22-1.34-2.25-.75-2.25-1-4.25-2.55-6.75-3-.62-.01-1.18-.15-1.5-.75-.74-.83-1.65-1.67-.55-2.82,1.28-1.34,2.75-1.42,4.25-.13,.24-1.32-.48-1.16-1.08-1.19-2.58-.12-6.45-4.93-6.14-7.62,.1-.87,.1-1.78,1.29-1.95,.98-.14,1.36,.26,1.95,1.13,1.11,1.64,2.58,3.54,4.65,.72,.69-.95,1.58-.44,2.18,.31,.85,1.07,1.68,2.16,2.44,3.3,1.59,3.07,4.48,3.19,7.39,3.25,.32,.03,.63,.12,.92,.25,.6,.48,1.27,.78,2.06,.78,.29,.13,.53,.33,.72,.59,.7,1.45,1.81,1.52,3.11,.9,.77-.07,1.3,.23,1.55,.98,.37,.49,.69,1.04,1.13,1.46,1.47,1.37,2.67,1.75,2.71-1.61,.81,1.81,2.75,2.53,1.83,4.27-1.04,1.96-2.59,.81-3.85,.15-1.34-.7-1.7,.3-2.35,1.03-.61,.68-.91,1.67-1.91-.15-.84-1.55-1.15,1.19-2.19,1.36,6.28,2,12.68,3.22,19.43,3.46-1.62,2.3-5.1,2.49-9.94,.62,.72,1.6,1,3.01,.07,4.49-.22,.05-.1,.11,0,.03-.47,.07-.68-.34-1-.54,.02,.17,.14,.33,.37,.46,.05,.03,.16,.06,.63,.04,1.22,.57,1.15,1.35,.6,2.17-1.18,1.77-5.19,1.77-7.03,0Z"/>
  <path class="cls-50" d="M112.68,24.13c-.13,5.71-4.34,2.45-6.35,2.36-1.86-.08-2.24,.02-1.34,1.35,.89,1.32-.12,2.15-.32,3.04-.5,2.23-.53,4.09,2.39,5.44-1.83,.58-2.98,.94-4.14,1.3-.51-.33-1.05-.99-1.53-.95-3.22,.29-5.81-.61-7.47-3.55,1.14-1.86,2.92-1.31,4.57-1.18,.9,.07,1.45-.52,1.73-1.16,.63-1.48-.78-.72-1.24-.98-2.01-1.14-2.3-4-4.72-4.75-.14-.04-.23-.72-.1-.97,.12-.23,.59-.44,.88-.4,.33,.05,.61,.4,.93,.57q4.42,2.41,6.2-3.13c2.25-3.05,4.85-5.25,9-3.75,.25,0,.5,0,.75,0,1.5,.25,3,.5,4.5,.75,.1,.15,.19,.29,.29,.44,.1,1.69-1.37,1.77-2.38,2.34-1.33,.67-2.37,1.49-1.67,3.22Z"/>
  <path class="cls-53" d="M66.95,12.87c.31-3.16,2.14-3.33,4.22-1.8,1.01,.74,1.77,1.32,2.92,.74,1.22-.61,.95-1.59,.41-2.52-.59-1.02-.18-1.37,.77-1.91,.93-.52,.02-1.74-.38-1.5-2.31,1.4-1.54-1.2-2.31-1.72-.58-.39-.6-1.42-.01-2,.71-.71,1.47-.06,1.96,.37,1.03,.9,1.93,1.81,2.78-.1,.29-.65,.35-1.63,1.42-1.12,.77,.37,1.03,1.11,.44,1.85-1.5,1.87,1.25,1.25,1.27,2.21-.63,1.9-3.84,.78-3.97,3.58,2.95-.1,5.23,1.22,7.16,3.29,.41,.44,1.16,.68,.68,1.43-.36,.56-1.13,.91-1.63,.53-3.11-2.35-4.34,.78-6.13,2.09-1.55-1.2,.85-2.17,.14-3.27-1.78-.32-1.23,1.7-2.25,2.1-.66,.53-1.74-.21-2.26,.75-.32,.6-.88,.73-1.49,.75-.15-.06-.31-.12-.46-.18-1.56-.76-1.32-3.18-3.27-3.58Z"/>
  <path class="cls-20" d="M111.18,17.38c-3.53-.02-6.26,1.87-9,3.75-.43-.2-1.25-.43-1.23-.59,.19-2.1-3.69-.31-2.57-2.33,.78-1.41,2.44,.38,3.72,.68,2,.47,2.46-1.67,1.84-2.86-2.14-4.11-.09-2.58,2.06-1.81,1.99,.71,5.08-.6,5.18,3.16Z"/>
  <path class="cls-66" d="M99.18,45.12c-1.74,.96-3.5-.93-5.24,.03-.46-.58-.86-1.2-1.38-1.72-.81-.8-.57-1.83-.07-2.38,1.11-1.2,.62,1.31,1.49,.81,2.06-1.2,3.89,1.92,5.95,.27-.4,.96,1.87,2.59-.75,3Z"/>
  <path class="cls-14" d="M92.7,4.06c-2.36-.32-4.53,1.32-5.69-1.51-.26-.63-.49-1.47,.25-1.44,1.99,.07,3.69,.96,5.44,2.95Z"/>
  <path class="cls-53" d="M72.93,21.14l-1.5-.76c-.68,.23-1.05-.18-1.39-.67-.29-1.13-1.47-2.45,.64-3.08,0,0,0,0,0,0,.2,1.77,3.68,1.91,2.25,4.5Z"/>
  <path class="cls-50" d="M93.93,33.32c-.3,1.1-.9,.79-1.5,.63-.74-.2-1.57-.35-1.15-1.41,.2-.49,.38-1.47,1.15-1.02,.66,.39,1.05,1.24,1.49,1.8Z"/>
  <path class="cls-10" d="M72.17,15.89c.25-1.75,1.31-1.1,2.26-.75-.18,1.99-1.52,.46-2.26,.75Z"/>
  <path class="cls-13" d="M168.92,8.38c2.06-.73,4.19,1.73,6.33-.23,.45-.42,1.01,.78,1.21,1.5,.26,.95,.77,1.73,1.83,1.1,1.78-1.06,3.1-.63,3.97,1.1,.94,1.87,1.03-3.21,1.97-.2,2.11-1.11,3.26,.85,4.85,1.45,.68,.26,1.85,2.44,2.16-.63,.19-1.9,2.3,.67,3.45-.25,.35,.59-.37,2.15,1.2,1.57,.96-.36,.74-1.41,.53-2.3-.06-.24,.24-.56,.88-1.92-.03,3.51,1.53,4.78,3.68,5.35,.82,.22,.2-1.13,.92-1.29,1.23,1.38,2.38,2.86,4.4,3.16,.23,.03,.41,.39,.61,.6,1.48-2.91,3.35,0,3.39,.36,.17,1.71-.66,3.18-2.49,3.78-.46,.15-.94,.23-1.41,.35-.2-.3-.09-.67-.21-1-.21,.31-.21,.74-.54,.99-.33,.13-.65,.25-.98,.38,.33,.13,.65,.26,.98,.38-.72,1.79-.92,4.01-3.58,1.17-1.87-2-6.04-.59-6.92,1.82-.07,1.52-1.16,1.51-2.25,1.5-1.37-.12-1.18-2.05-2.55-2.15-.83,1.15-1.68,2.19-3.27,2.23-2.88,.08-5.7-1.69-8.67-.2-.45,.23-1.14-.83-1.66-1.37-1.27-1.31-3.19-.61-4.61-1.46-2.22-1.2-1.71-3.16-.03-3.6,3.58-.94,7.28-2.92,11.15-.52,.18-1.17-.76-.8-1.16-1.04-.53-.31-1.11-.68-1.74-.59-3.38,.47-3.75-1.45-3.31-4.06-.2-.25-.39-.49-.61-.72-2.11-1.23-4.73-.93-6.8-2.27-1.09-.79,.13-2.16-.75-3h0Z"/>
  <path class="cls-7" d="M213.64,19.37c.28,2.34-.25,3.59-1.63,4.08-1.61,.56-.84-.95-1.09-1.57,1.51,.25,1.71-1.21,2.72-2.51Z"/>
  <path class="cls-57" d="M231.92,26.38c-1.55,.26-2.56-.85-3.75-1.49,1.74-.74,3.06-.43,3.75,1.49Z"/>
  <path class="cls-59" d="M207.17,26.38c-.11-.56-.83-1.01-.34-1.64,.04-.06,.87,.29,1.1,.62,.65,.93-.15,.94-.76,1.02h0Z"/>
  <path class="cls-79" d="M307.66,1.63c.66,.91,2.25,1.57,.95,3.03-1.63,1.85-3.58,1-5.57,.49,1.43-1.39,1.35-4.58,4.62-3.52h0Z"/>
  <path class="cls-64" d="M297.31,5.21c-.37,.04-.82,.15-1.26,.13-.37-.01-.72-.25-.32-.63,.25-.24,.65-.41,.99-.42,.37-.01,.69,.25,.58,.92Z"/>
  <path class="cls-8" d="M177.17,24.88c.9-.11,.86,3.37,2.65,.59,.5-.77,2.39-.55,3.72,.11,2.41,1.2,4.86,1.97,6.09-1.61,.02-.05,.67,.11,1.02,.17,.66,1.17,1.25,2.35,.76,3.74-2.5,1.5-5,3-7.5,4.5-.3,.24-.96,.3-.98,.41-.11,.79,.63,.31,.96,.53,.42,.28,.85,.5,.96,1.05-.23,.24-.43,.52-.81,.52,.47,.15,.65-.42,1.07-.42,.72,.45,.86,.99,.3,1.66-.61,.32-.74,.88-.75,1.5,1.01,2.38,.99,4.66-.74,6.74-3.99,2.34-8.25-.09-12.37,.67-1.76,.32-4,1.45-5.63-.66-.12-.35-.15-.93-.38-1.01-3.52-1.33-3.69-2.65-.06-4.07,.47-.19,.84-.52,.77-1.08-.74-1.35-3.09,.17-2.72-.5,1.31-2.38-4.95-3.76-.61-6.08,.25,0,.5,0,.75,0,1.09,.25,1.25,1.25,1.64,2.11,.83-1.22,.1-2.71,.88-3.9,.94-1.42,.79-4.3,3.92-2.51,1.17,.67,1.62-2.3,3.25-1.06,.56,.47,.77,1.19,1.2,1.78-.09-.81-.71-1.23-1.19-1.75,.6-2.26,2.49-1.05,3.8-1.42Z"/>
  <path class="cls-44" d="M185.42,36.13c-.02-.62-.15-1.17-.75-1.5h0c-.4-.24-.79-.48-1.19-.71-.77-.44-1.94,1.01-2.44-.47-.13-.38,0-1.04,.28-1.32,.91-.94,1.75-.03,2.61,.26,.39,1.33,4.41-1.64,2.72,2.33-.26,.62,.88,.61,1.43,.42,1.41-.48,2.79-1.03,4.3-1.17-2.06,1.53-3.81,4.07-6.96,2.17Z"/>
  <path class="cls-75" d="M191.42,27.88c-.72-1.15-.83-2.43-.76-3.74,1.66,.32,1.43,2.06,2.25,3-.32,.6-.88,.73-1.5,.75Z"/>
  <path class="cls-57" d="M276.91,24.13c-.29,.71-.78,1.22-1.5,1.5-1.17-.7-2.61-.62-3.77-1.34-.44-.87,.18-1.26,.77-1.65,2.54-2.62,3.46-.39,4.5,1.5Z"/>
  <path class="cls-19" d="M276.91,12.13c.76,.11,1.55,.25,1.1,1.31-.1,.24-.63,.55-.84,.47-1.09-.39-.47-1.13-.27-1.77,0,0,0,0,0,0Z"/>
  <path class="cls-67" d="M272.41,22.63c-.25,.5-.49,1-.74,1.5,.19,.17,.25,.33,.18,.5-.07,.16-.13,.24-.19,.24-1.05-1-1.05-2,0-2.99,.25,.25,.5,.5,.75,.75Z"/>
  <path class="cls-73" d="M290.41,21.13c-.75,.75-1.5,1.5-2.25,2.25,.25-1.25-.76-3.76,2.25-2.25Z"/>
  <path class="cls-73" d="M288.55,6.82c-.49-.13-.78-.36-.51-.72,.17-.23,.57-.41,.86-.4,.16,0,.3,.46,.44,.71-.29,.15-.58,.3-.79,.41Z"/>
  <path class="cls-11" d="M3.94,18.88c2.65-1.25-.58-2.5,0-3.75,0,0,0,0,0,0,.75-.26,1.47-.63,2.27-.75,2.91-1.18,5.84,.45,9.02,.12-1.73-3.79-5.58-3.94-8.11-6.1,.37-.52,1.43-1.09,2.17-.47,1.11,.93,2.36,1.35,3.3,.56,1-.83-.55-2-.39-3.11,1.44,.75,3.66,.74,2.62,3.57-.39,1.04,1.13,.8,1.88,.93h0c.88,3.47,4.15,5.78,4.52,9.57,.08,.78,1.84,.99,2.98,.92,.64-.02,1.13,.24,1.5,.75h0c.5,.75,.89,1.57,1.5,2.24,.5,1.25,1,2.5,1.5,3.75-.33,2.47-2.73,.56-3.89,1.99,2.33,.76,4.84,.48,6.88,1.77,.22,2.48,2.06,2.23,3.76,2.24-1.95,1.26-3.48,2.82-6.43,1.39-1.64-.8-4.46,.02-6.32,1.6,.46-1,.92-1.99,1.36-2.92-5.2-.37-10.25-.58-15.25-1.21-1.21-.15-2.24-1.71-3.35-2.62-.22-.16-.3-.33-.22-.49,.07-.16,.15-.25,.22-.25q2.3-2.97-2.09-4.32c-.28-.09-.62-.51-.63-.79-.01-.26,.34-.6,.61-.79,.81-.59,.93-1.84,.37-2.49-.19-.22,.15-.9,.25-1.36Z"/>
  <path class="cls-76" d="M56.43,15.13c-.94-1.41-1.88-2.82-3-4.49-.62,2.13-.6,5.34-3.61,1.83-.66-.77-3.57,.8-2.49-2.28,.2-.58-.56-.56-1.05-.61-1.02-.09-.66,.46-.78,1.1-.46,2.61,1.71,3.76,2.76,5.54,1.19,2.02,2.72,1.93,4.53,.78,.16,1.3,.46,2.39,.37,3.43-.08,.96-.94,1.84-1.71,.75-.72-1.02-.73-2.19-2.62-1.56-2.34,.78,.47,2.24-.65,3.02-2.1,2.45-3.56-1.28-5.67-.66-.59,.17-1.42-.31-1.83,.66-1.97,.92-3.42,.26-4.5-1.49-1.79-1.35-1.45-3.25-1.19-5.05,.27-1.85,.19-3.34-2.1-3.72-3.49-.58-4.13-2.4-1.95-5.49,.6-.35,.86-.67,.15-1.25-.9-.73-.85-1.61-.16-2.49,0,0,0,0,0,0,1.51,.81,3.59-.04,4.67,2.41,.69,1.56,4.14-.61,4.92-3.37q.89,2.04-.11,4.05c3.2,.32,6.25,1.87,9.49,.94,.71,1.64-1.35,1.67-1.38,2.8,1.9,.28,3.62,.1,5.3-.79,1.44-.76,2.04-.04,1.87,1.46,.9,.28,1.34,1.23,2.25,1.5,.25,.25,.5,.5,.75,.75,.8,1.07,.23,1.81-.59,2.49-.58,.14-1.16,.2-1.66-.24Z"/>
  <path class="cls-11" d="M38.43,42.88c-1,.75-2,1.5-3,2.24-.96-.64-1.1-2.54-3.27-.62-1.97,1.74-5.29,.55-7.99-.12-.62-.01-1.18-.14-1.5-.74-.69-2.03-2.5-2.76-4.27-3.1-1.41-.27-2.5-1.05-3.88-1.54-1.02,.78-.33,2.49-1.59,3.12-.25-.25-.5-.5-.75-.75-.49-.51-1.06-.93-1.5-1.5-.32-.6-.88-.74-1.5-.75,0-1.72-2.28-2.1-2.43-4.28,1.96,1.05,3.39,3.24,5.69,1.52,.27-1.53-1.64-.54-2.26-2.55,4.42,1.15,8.34,2.9,12.5,2.3-.63,.53-1.25,1.05-2.19,1.84,2.44,.8,4.32,.24,6.02-.05,1.13,.97-1.13,1.84,.19,2.64,1.35,.82,3.18-.47,2.64-1.86-.29-.76-1.11-1.33-.64-2.6,3.74,1.51,7.73,5.13,10.83-.89,.36,.6,.58,.86,.54,.92-1.5,2.08-2.24,5.1-1.63,6.75Z"/>
  <path class="cls-6" d="M36.18,21.13c1.5,.5,3,1,4.5,1.49,2.58,.66,2.11,2.17,.8,4.15,4.61-2.95,7.26,1.7,10.88,2.18,.45,.06,.96,.67,.49,1.13-.5,.5-1.62,1.2-1.82,1.04-3.75-3.13-7.97-.05-11.85-1.01-.25-1.51,.39-2.87,1.04-4.49-4.77,.24-9.13-.01-11.42-5.74,2.71,1.1,4.61,5.39,7.37,1.24Z"/>
  <path class="cls-76" d="M49.68,23.38c2.6,.21,5.5-.24,6.75,3-2.91,.5-5.23-.36-6.75-3Z"/>
  <path class="cls-42" d="M111.93,42.13c-.51-1.38-1.03-2.77-1.55-4.18,3.24-.45,6.12,1.09,9.63-.64,2.19-1.08,3.26-1.96,4.02-3.9,.42-1.07,1.12-.8,1.73-.28,1.42,1.2,4.52,.4,4.25,3.56-.03,.39-.93,.78-.17,1.16,1.72,.86,3.58-.11,5.51,.5,1.77,.56,3.98-.26,3.29-3.19-.05-.2,.12-.44,.18-.67,1.44,.61,2.61-1.42,4.11-.39,.85,.59,1.44,.05,1.74-.68,.79-1.94-1.54-1.52-1.99-2.54,.72-.2,1.49-.68,2.14-.54,1.24,.25,3.02,.54,3.45,1.38,.57,1.13-1.71,1.4-1.89,1.82-.84,2.03-2.35,2.47-4.2,2.68-.76,.09-1.5,.48-1.39,1.42,.09,.78,.98,.97,1.45,.88,3.46-.63,6.88,2.68,10.37,.04,.52-.4,1.54-.29,1.83,.66,.29,.94-.41,1.49-1.13,1.63-1.81,.36-3.65,.53-5.48,.79-1.19,.17-3.1-2.74-3.49,.82-1.24-.72-2.49-1.44-3.73-2.15-1.68-.97-1.68-.97-1.96,1.06-.22,1.56-1.75,1.58-2.72,2.26,0,0,0,0,0,0-2.26-2.63-4.87-1.76-7.5-.75-.32,.35-.68,1.04-.96,1.01-2.06-.24,.08-1.9-1.12-2.81-1.03,2.93-3.38,4.39-6.03,3.03-1.43-.74-3.67-.25-4.23-2.37-1.51,.4,.29,2.84-1.89,2.63-.02-.23-.04-.47-.05-.7-.61-.81-1.67,0-2.32-.64-.2-.32-.16-.62,.1-.89Z"/>
  <path class="cls-77" d="M70.68,16.63c-1.35,1,.27,2,0,3-1.32,1.03-2.24,.48-3-.75-.09-2.23-1.66-.02-2.25-.75-.25,0-.5,0-.75,0-.88-.38-1.72-.85-2.49-1.44,.54-1.84,.62-3.29,.24-4.57,1.7-.92,2.92,1.07,4.51,.74,3.9-1.38,2.12,2.87,3.74,3.76Z"/>
  <path class="cls-65" d="M62.43,12.13c.5,1.24,1.49,1.86,2.7,2.15-.05,1.81-2.79,.41-2.7,2.35-1.85,.55-3.32-.02-4.5-1.5,.25-.75,.5-1.5,.75-2.25,1.44-1.05,.19-2.85,1.22-4.18,.92,.41,.99,1.54,.79,1.96-1.39,2.94,1.52,.6,1.74,1.48Z"/>
  <path class="cls-41" d="M71.22,3.02c-1.7-.39-3.26,3.35-5.01,.14-.42-.78-.07-1.3,.43-1.5,1.84-.73,3.2,.35,4.58,1.36Z"/>
  <path class="cls-65" d="M57.93,12.13q-1.13,1.04-2.25-1.5c.88-.08,1.31-1.74,2.44-.77,.9,.76,.05,1.52-.19,2.27Z"/>
  <path class="cls-72" d="M31.68,30.89c-2.19,.97-4.19-1.17-6.46-.37-.51,.18-2.05-.42-1.89-1.35,.17-.96,.99-2.03,2.34-1.88,1.03,.11,2.07,1.16,3.02-.15,1.29-.04,1.08,2.56,3.48,1.54,1.16-.49,.63,1.53-.49,2.22Z"/>
  <path class="cls-11" d="M16.68,9.88c0-.12,.01-.25,0-.37-.14-1.49,.22-2.69,1.85-3.09,.53-.13,1.22,.34,.97,.69-.76,1.06-.57,3.21-2.82,2.76h0Z"/>
  <path class="cls-10" d="M30.93,3.13c.06,.84-.14,1.82,.98,2.15,.77,.23,1.98,.05,1.24,1.48-.65,1.25-1.46,.33-2.21,.11-.5-.75-1.01-1.49-1.51-2.24,.25-.5,.5-1,.75-1.5,.25,0,.5,0,.75,0Z"/>
  <path class="cls-6" d="M25.68,21.13c-.62-.02-1.18-.15-1.5-.75,.65-1.29,1.76-1.84,3.38-2,.09,1.51-1.73,1.61-1.88,2.75Z"/>
  <path class="cls-6" d="M27.18,23.38c-1.82,.13-2.53-.47-1.5-2.24,1.8-.12,2.55,.46,1.5,2.24Z"/>
  <path class="cls-6" d="M31.33,18.14c1.23,.7,1.85,1.51,1.22,2.19-.8,.87-.77-.27-.93-.72-.11-.31-.14-.66-.29-1.48Z"/>
  <path class="cls-55" d="M188.42,4.64c-1.22-.57-2.49,2.39-3.35,.29-.66-1.62,.77-2.65,2.6-2.54,.25,.75,.5,1.5,.75,2.25Z"/>
  <path class="cls-75" d="M205.67,21.87c-.01-.91-.03-1.81-.04-2.72,.44,.13,.97,.15,1.31,.42,1.38,1.08-.6,1.47-.52,2.3-.25,0-.5,0-.75,0Z"/>
  <path class="cls-48" d="M202.59,8.94c.16,.32,.42,.61,.44,.91,.03,.65-.49,.75-.95,.61-.24-.07-.38-.46-.56-.7,.25-.19,.5-.38,1.08-.81Z"/>
  <path class="cls-55" d="M168.92,1.64c3.05,.34,6.06,.23,8.99-.76,1.07,.2,2.31,.84,3.2,.52,4.35-1.59,2.45,1.29,2.31,3.01-.05,.58-.37,1.18-.77,.86-2.65-2.18-5.84,.18-8.28-.88-2.64-1.14-4.11,1.12-6.21,1,0-.75,0-1.5-.01-2.25-.47-.87,.35-1.08,.76-1.5Z"/>
  <path class="cls-12" d="M151.67,12.13c-.91-1.01-1.78-2.05-2.73-3.03-.44-.46-1.54-.66-1.42-.01,.67,3.73-1.87,1.4-2.86,1.5-2.07,.19-4.21-.05-4.74,2.72-1.55-.4-.57-2.22-1.75-2.68,.13-.83,1.51-1.24,.92-2.24-.5-.85-1.61,.07-1.77-.02-2.21-1.3-5.75,1.5-7.13-2.39-.45-1.28-1.4-.27-2.11,.12-.86,.47-1.7,1.06-2.62,1.35-1.09,.35-1.66-.5-1.79-1.39-.16-1.09,.67-.87,1.45-.96,2.2-.24,3.97-1.27,4.81-3.48,3.15-.1,5.67,1.4,8.16,3.1,.68,.47,2.3,3.15,2.41-.59,.02-.68,1.95,.1,2.94,.51,2.66,.58,3.4-2.17,5.24-3.01,.61-.25,1.44,3.3,1.95-.14,.12-.82,1.67-.79,1.8-.33,.75,2.61,2.02,1.82,3.31,.64,.83-.76,1.46-.87,2.07,.14,.78,1.3,1.78,1.06,2.85,.43-1.44,4.6,1.2,6.62,4.98,7.97,.41,.15,.69,.68,1.03,1.04,.36,1.19-.65,1.39-1.33,1.83-.33,.11-.67,.16-1.03,.16-1.01-.06-1.87-.59-2.78-.92-1.89-.67-4.39-.05-5.11-3.22-.33-1.45-3.16-.75-3.74,1.03-.23,.71-.33,1.43-1.02,1.86Z"/>
  <path class="cls-5" d="M120.17,.9c1.45-.01,2.99-.25,3.76,1.48-1.5,2.77-3.1,5.3-6.84,2.25,.26-.89,.98-1.41,2.47-1.22,.89,.11,2.23,.1,2.44-1.03,.18-.99-1.51-.59-1.82-1.49Z"/>
  <path class="cls-50" d="M116.43,18.13c-.42-1-1.15-1.96-.25-3.45,1.26,2.29,5.82-.34,5.49,4.2,0,0,0,0,0,0-1.92,.91-3.74,1.14-5.25-.75h0Z"/>
  <path class="cls-78" d="M317.06,28.78c.45,.61,.81,.93,.96,1.33,.18,.47,.06,1.05-.49,1.2-.73,.2-1.21-.24-1.17-.96,.02-.43,.36-.85,.7-1.56Z"/>
  <path class="cls-51" d="M5.44,28.64c0,.25,0,.49,0,.74-.19,.16-.4,.3-.56,.48-.93,1.03-1.95,2.19-3.44,1.32-.82-.48-.68-1.71-.07-2.35,1.21-1.26,2.63-1.83,4.07-.2Z"/>
  <path class="cls-27" d="M6.2,14.38c-.44,1.21-1.23,1.35-2.27,.75,.56-.83,.99-2.07,2.27-.75Z"/>
  <path class="cls-18" d="M191.97,44.46c.33-.17,.61-.44,.91-.45,.65-.03,.76,.5,.62,.96-.07,.24-.51,.57-.7,.52-.24-.07-.4-.46-.83-1.03Z"/>
  <path class="cls-70" d="M212.41,2.4c.5-.78,1.01-.78,1.52,0-.07,.42,.03,1.07-.61,.95-.35-.07-.61-.61-.9-.94Z"/>
  <path class="cls-75" d="M222.85,3.43c-.11,.46-.22,.88-.67,.59-.25-.15-.46-.52-.49-.82-.04-.38,.27-.69,.67-.49,.25,.13,.36,.51,.5,.71Z"/>
  <path class="cls-3" d="M148.68,1.63c-1.06,2.19-1.87,4.83-5.24,3.01,.99-1.42-1.74-1.7-.76-3.4,1.87,2.23,3.95-.41,6,.39Z"/>
  <path class="cls-39" d="M151.67,12.13c.11-4.7,.55-5,4.69-4.29,1.42,.24,2.11,.54,1.68,2-.29,.99-.12,2,.91,1.93,1.31-.08-.58-1.59,.66-1.98,1.13,2.19,3.61,2.17,5.58,3.08,.15,1.09,.41,2.18-.55,3.09-.83,.78-1.86,1.29-2.25-.16-.52-1.9-1.81-2.09-3.34-2.14,1.02,.05,2.02,.19,2.76,1.01,.63,.7,.28,2.65,2.03,1.9,1.58-.67,1.93-2.09,1.35-3.69,.48-.5,.98-1,1.49-1.5,.72,.28,1.21,.78,1.5,1.49-.34,2.38,1.75,3.96,2.01,6.17,.2,1.75,.99,3.61-2.06,3.29-1.21-.12-1.42,1.25-2.2,1.79-.88-1.27-.8-1.1-2.08-.5-.77,.36-2.21,.51-2.68,.06-1.28-1.24,.59-1.71,1-2.57,.21-.2,.28-.43,.14-.64-.24-.36-.56-.35-.89-.11-1.34-1.7-3.72-1-5.25-2.25-.74-.67-1.51-1.44-1.45-2.46,.13-2.25-1.59-2.75-3.05-3.54h0Z"/>
  <path class="cls-12" d="M165.92,24.13c-.12-2.91,1.4-3.36,3.9-2.38-.26-1.28-.63-2.4-.69-3.54-.06-1.05,.22-1.79-1.22-.74-.73,.53-.91-.4-.74-1.05,.31-1.19,.67-2.36,1-3.54,.71-.28,1.21-.78,1.5-1.5,2.8-.26,5.51-.21,7.49,2.26-.3,.43-.95,.61-1.01,1.3,.4-.43,.58-.97,1.01-1.3,3.5,1.03,.43,2.43,.1,3.81,2.72-.64,4.93,1.05,7.42,1.24,.36,.03,.47,1.17,.4,1.13-1.32-.72-1.71,2.39-2.8,.86-2.1-2.96-4.12,1.3-6.08-.16-.25,2.01-1.14,.9-1.92,.4-1.4-.89-2.1,.19-2.65,1.11-.6,1.01,.29,1.21,1.05,1.35q-.78,1.4-3.75,.75c-1-.91-2,.91-3,0Z"/>
  <path class="cls-2" d="M163.68,2.38c.25,0,.49,0,.74,0,.85-.44,1.2,.1,1.49,.75-.13,1.56-1.31,2.01-2.54,2.13-1.29,.12-.94-1.29-1.17-1.9-.58-1.52,.89-.75,1.48-.99Z"/>
  <path class="cls-48" d="M165.91,3.14c-.5-.25-1-.5-1.49-.75,.25-.25,.5-.5,.75-.75,1.25,0,2.51,0,3.76,0-.25,.5-.51,1-.76,1.5-.75,0-1.5,0-2.25,0Z"/>
  <path class="cls-12" d="M168.92,8.39c1.1,.79,.64,1.96,.75,3-2.61-.41-.38-2.03-.75-3Z"/>
  <path class="cls-72" d="M12.94,42.13c.03-.25,.11-.5,.08-.74-.52-4-.12-5.5,3.9-2.18,1.04,.86,3.37,1.26,5.1,2.01,1.62,.7,.48,1.63,.66,2.43-.74,.25-1.49,.5-2.23,.75-1.01,1.3-2-1.37-3.01-.02-.5,0-1,0-1.49,0-1.08,0-1.83-.5-2.26-1.49,.65-1.12-.42-.58-.74-.77Z"/>
  <path class="cls-72" d="M10.69,39.88c.98,.02,1.47,.52,1.5,1.5-.23,.03-.47,.05-.7,.09-.84,.12-1.94,1.17-2.41-.17-.35-.99,1.43-.49,1.61-1.41Z"/>
  <path class="cls-72" d="M24.17,44.39c1.85,.05,3.52-.84,5.63,.12,2.01,.91,3.43-1.41,4.5-4.29,.73,2.42,.2,3.86,1.13,4.9-2.82,.06-5.54,1.14-8.4,.77-1.17-.15-2.59,.31-2.86-1.51Z"/>
  <path class="cls-46" d="M17.43,44.37c.03-.83-.09-1.69,.79-2.46,1.2,.34,.4,2.73,2.22,2.47-1.01,1.34-2.01,.37-3.01-.02Z"/>
  <path class="cls-39" d="M128.43,42.88c.04-.25,.03-.51,.11-.74,1.14-3.25,4.53,1.49,5.72-1.61,.92,.83,1.94,1.62,1.66,3.1-1,0-2.01,0-3.02,0,0,0-.36,0-.36,0,0,0-.36,0-.36,0-.26,0-.51,0-.77-.01-.65-.52-1.2-1.35-2.23-.75-.25,0-.51,0-.76,0Z"/>
  <path class="cls-42" d="M129.19,42.87c1.24-1.23,1.94-.84,2.23,.75-.74-.25-1.49-.5-2.23-.75Z"/>
  <path class="cls-28" d="M111.93,42.13c0,.25,0,.5,0,.76,.59,2.51-.9,1.89-2.25,1.49,0,0,0,0,0,0-1.85-.26-3.71-.5-5.56-.8-1.03-.17-1.2-.71-.44-1.47,2.76-1.66,5.5,.79,8.25,.03Z"/>
  <path class="cls-50" d="M109.68,44.37c1.09,.02,2.18,.04,2.25-1.49,.83,.02,1.72-.15,2.23,.78-1.32,1.32-2.65,2.55-4.47,.71Z"/>
  <path class="cls-29" d="M271.66,24.88c0-.25,0-.5,.01-.74,1.32,.32,3.26-.91,3.74,1.5-.02,.62-.15,1.18-.75,1.5-1-.75-2-1.5-3-2.25Z"/>
  <path class="cls-75" d="M237.91,20.38c-.11,.56-.21,1.12-.32,1.67-.28-.14-.72-.23-.8-.44-.41-1.06,.44-1.09,1.12-1.23h0Z"/>
  <path class="cls-12" d="M151.67,12.13c2.4-.6,4.3-.68,3.82,2.81-.14,1.01,.43,2.12,.68,3.19-1.23,.05-2.44-.47-3.59-.5-2.76-.07-6.04-2.56-8.11,1.71-.72,1.48-2.65,.57-4.06,.29-.5,.91,.04,3-1.92,2.3-1.44-.52-1.19-1.92-.32-3.05,1.17,.1,1.6-3.17,3.58-.53,.72,.97,2.32-.4,2.38-2.11,.04-1.02-1.4-1.49-.88-2.63,2.93,.14,5.76-.18,8.41-1.48Z"/>
  <path class="cls-39" d="M168.92,24.13c.17-.71,.32-1.69,1.32-.86,.87,.72,1.56,1.21,2.43,.12,1.11,1.67,3.59-.77,4.5,1.49-.54,2.28-3.06-.38-3.75,1.5h0c-.87,.11-1.73,.16-1.88,1.33-.31,2.26-.56,1.12-1.92,.4-2.88-1.52-1.46,2.75-3.28,3.16,1.51,1.73-1.16,2.7-.21,4.72-1.86-1.46-1.62-3.17-2.46-4.36-.08-2.94-.68-6.21,4.06-5.89,.77,.05,1.14-.81,1.19-1.61Z"/>
  <path class="cls-45" d="M112.68,24.13c-1.14-.11-1.4-.61-1.05-1.75,.41-1.36,1-2.22,2.55-2,.76,.02,1.52,.03,2.26,.18,.8,.15,1.49-.25,2.22-.45,.77-.05,1.21,.38,1.52,1.02,.19,1.35-.43,3.45,2.39,2.02,.64-.32,3.19-1.48,3.04,1.35-.03,.58,.66,1.56-.57,1.83-1.44,.31-1.19-.47-.92-1.34,.01-.04-.81-.41-.82-.39-1.54,2.7-3.64,.08-5.45,.54-2.07,.53-4.29,.59-2.12-2.83-1.78,.04-2.28,1.15-3.06,1.81Z"/>
  <path class="cls-1" d="M138.18,18.89c.21,.88-.55,2.24,.72,2.54,.97,.22,.63-1.47,1.51-1.78,.12,1.08,.62,2.31,.25,3.18-.29,.7,.41,3.3-2.45,1.89-1.08-.54-3.4,1.41-5.58,2.43,.45-1.55,1.12-2.52,2.02-3.44,.49-.5,2.17,.84,1.62-1.02-.28-.93-.75-1.99-1.87-2.15-1.61-.23-2.71-1-3.78-3.4,2.69,2.38,5.24,1.11,7.55,1.76Z"/>
  <path class="cls-20" d="M120.18,21.13c-.5-.25-1-.5-1.5-.75-1.18-1.03-1.17,1.5-2.25,.75-.82-.03-1.71,.13-2.25-.76,.51-.98,2.39-.61,2.24-2.25,1.66,.86,3.52,.39,5.25,.75,1.11,1.82-1.28,1.32-1.5,2.25Z"/>
  <path class="cls-39" d="M159.18,23.33c-1.45-.97-3.09-.61-3.1-2.32,0-.31,.72-.91,1.04-.87,1.43,.17,1.91,1.18,2.05,3.19Z"/>
  <path class="cls-39" d="M155.06,19.23c-1.09,1.49-2.26,1.22-3.55,.9,.89-1.15,1.92-1.46,3.55-.9Z"/>
  <path class="cls-12" d="M147.52,20.22c-.36-.49-.68-.8-.82-1.18-.05-.13,.51-.66,.57-.62,.36,.22,.72,.5,.94,.85,.06,.1-.35,.49-.69,.95Z"/>
  <path class="cls-12" d="M161.43,20.38c.33-.64,.96-1.62,1.46-1.19,.82,.71-.1,1.41-.71,1.94-.25-.25-.5-.5-.75-.75Z"/>
  <path class="cls-10" d="M57.93,15.13c1.5,.5,3,1,4.5,1.5,1.09,0,2.18-.02,2.25,1.5-1.67,.63-3.54-.36-5.16,.65-.74,.46-.92-.07-.75-.54,.83-2.29-1.89-1.84-2.35-3.12,.5,0,1,0,1.5,0Z"/>
  <path class="cls-10" d="M67.68,18.88c.93,.51,1.91,.87,3,.75,.25,.25,.5,.5,.75,.75-.07,1.98-1.53,1.16-2.42,1.07-1.59-.15-1.23-1.53-1.33-2.57Z"/>
  <path class="cls-77" d="M76.48,33.42c.29,1.42,1.86,1.92,1.3,3.33-.07,.18-.73,.35-.9,.23-1.09-.81-1.64-1.81-.4-3.56Z"/>
  <path class="cls-10" d="M65.43,18.14c.96-.38,2.45-2.35,2.25,.75-1.29,1.39-2.11,1.32-2.25-.75Z"/>
  <path class="cls-39" d="M173.42,26.38c2.91-.18,1.3,1.93,1.56,3.09-1.1-.73-1.32-1.91-1.56-3.09h0Z"/>
  <path class="cls-44" d="M184.67,34.63c-.17,.33-.32,.66-.5,.98-.36,.64-.7,1.36-1.64,1.1-.15-.04-.36-.37-.33-.53,.14-.76,.52-1.37,1.37-1.49,.36-.05,.73-.04,1.1-.06h0Z"/>
  <path class="cls-65" d="M46.42,16.09c-.31,.15-.6,.4-.91,.41-.4,.02-.73-.29-.42-.69,.19-.24,.62-.32,.95-.38,.07-.01,.21,.36,.37,.66Z"/>
  <path class="cls-50" d="M123.86,40.04c-.15,1.28-.71,1.97-1.68,1.97-1.4,0-2.32-.86-2.51-2.21-.08-.58,.76-1.37,1.19-.84,.83,1.02,2.61-.34,3,1.08Z"/>
  <path class="cls-12" d="M165.24,12.62c1.22,2.33,.39,3.64-1.18,4.43-1.49,.75-2.12-.35-2.72-1.59-1.1-2.26-3.02-.44-4.74-.71,1.63-2.92,3.91-1.89,5.64-.81,2.35,1.47,2.2,1.7,3-1.33Z"/>
  <path class="cls-13" d="M174.77,17.15c1.29-1.38-1.47-2.39,.6-3.42,.49-.25,1.72-.14,1.73-.09,.16,1.4-.15,2.62-2.32,3.51Z"/>
  <path class="cls-50" d="M116.43,21.14c.68-.45,1.13-1.6,2.25-.75-.57,.8-.97,2.09-2.25,.75Z"/>
</svg>