<?xml version="1.0" encoding="UTF-8"?>
<svg id="Layer_2" data-name="Layer 2" xmlns="http://www.w3.org/2000/svg" width="88.9842" height="128.946" viewBox="0 0 88.9842 128.946">
  <defs>
    <style>
      .cls-1 {
        fill: #231f20;
      }
    </style>
  </defs>
  <g id="Layer_1-2" data-name="Layer 1">
    <g>
      <path class="cls-1" d="M44.0656,13.7253c-.7823,7.159-1.4312,14.3363-2.4076,21.4687-.4358,3.1828-.9857,6.813-4.1365,8.4537-3.0583,1.5925-3.9374-3.464-6.9433-3.1646,1.4007,8.2197-.1385,9.6795-8.1839,7.0486-5.0583-1.6541-9.8844-4.0202-14.8081-6.0826-1.9354-.8107-3.7544-2.4916-5.9238-.9837,4.7519,3.4184,9.5261,6.634,14.0438,10.1766,3.2399,2.5407,7.987,5.1574,7.2752,9.5068-.7654,4.677-6.7015,2.5592-10.2181,4.4445,.9136,.2081,1.5734,.4173,2.2487,.5022,2.9568,.3718,6.8658-.1235,7.9453,3.1027,1.1927,3.5644-2.4667,5.6394-4.7168,7.8357-1.989,1.9414-4.227,3.6527-6.481,5.2925-3.8682,2.8142-7.8345,5.4934-11.7596,8.2293,7.8729-2.0048,14.6334-6.1445,22.2056-8.2929,2.6699-.7575,5.6215-1.947,8.0477-.1501,3.1588,2.3395-.5317,5.1317-.5329,8.006,8.9955-5.6133,10.3217-5.0428,12.1549,6.0412,1.0975,6.6353,1.4829,13.3884,2.1884,20.0885-.9209,4.6569-.9379,9.2443,1.6369,13.6976v-13.4799c.6091-6.9589,.9343-13.9594,1.9455-20.8595,.5157-3.5189,.6675-8.3813,4.7316-9.4303,3.777-.9748,4.7834,4.0067,7.3732,6.3796-1.763-12.4462-.2716-13.5324,11.8617-8.7524,4.4811,1.7654,8.8459,3.8257,15.1189,6.5601-4.4753-5.7794-9.4195-7.6892-13.0347-11.1502-2.9663-2.8397-7.9896-5.1725-7.073-9.6545,.9529-4.6595,6.7462-2.4695,10.3221-4.1081-3.5946-1.6557-9.4299,.4631-10.3105-4.2788-.8239-4.4366,4.0217-6.9844,7.18-9.5955,4.2095-3.4803,8.7454-6.566,13.1411-9.8212-6.6983,1.5424-12.8363,4.0537-18.9908,6.5241-2.6289,1.0552-5.4454,1.9876-8.1446,.8453-3.2246-1.3647-.3272-4.9828-1.6674-7.3319-6.404,4.3568-7.5887,3.9637-9.6529-3.0678-2.3212-7.907-2.4713-16.0838-2.7957-24.2315V0c-2.2551,4.4859-2.7816,9.0404-1.6392,13.7253Zm44.9186,25.4042c-.1701-.1574-.3171-.2934-.4641-.4295-.1446,.2819-.3376,.5524-.4076,.8517-.0245,.1048,.2534,.2803,.3933,.4236,.1558-.2754,.3116-.5508,.4785-.8458Zm-29.5881-.2023c-.295,.1592-.5692,.3072-.8435,.4552,.1405,.1364,.3098,.4064,.4159,.3835,.2955-.0637,.5649-.2489,.8446-.3862-.1324-.1437-.2648-.2873-.417-.4525Z"/>
      <path class="cls-1" d="M44.0636,115.2484c-.7055-6.7001-1.0909-13.4532-2.1884-20.0885-1.8332-11.0841-3.1594-11.6545-12.1549-6.0412,.0012-2.8743,3.6917-5.6665,.5329-8.006-2.4261-1.7968-5.3778-.6074-8.0477,.1501-7.5722,2.1484-14.3326,6.2881-22.2056,8.2929,3.9251-2.7359,7.8915-5.4152,11.7596-8.2293,2.254-1.6398,4.492-3.3511,6.481-5.2925,2.2501-2.1963,5.9095-4.2712,4.7168-7.8357-1.0795-3.2262-4.9886-2.7309-7.9453-3.1027-.6754-.0849-1.3352-.294-2.2487-.5022,3.5166-1.8853,9.4527,.2324,10.2181-4.4445,.7118-4.3495-4.0353-6.9662-7.2752-9.5068-4.5177-3.5426-9.2919-6.7582-14.0438-10.1766,2.1694-1.508,3.9884,.173,5.9238,.9837,4.9237,2.0624,9.7498,4.4285,14.8081,6.0826,8.0454,2.6309,9.5847,1.1711,8.1839-7.0486,3.006-.2993,3.885,4.7572,6.9433,3.1646,3.1508-1.6407,3.7007-5.2709,4.1365-8.4537,.9765-7.1324,1.6253-14.3097,2.4075-21.4688,.5464-.0773,1.0928-.1545,1.6393-.2317,.3244,8.1477,.4746,16.3245,2.7957,24.2315,2.0642,7.0315,3.2488,7.4246,9.6529,3.0678,1.3402,2.3491-1.5571,5.9673,1.6674,7.3319,2.6991,1.1423,5.5157,.2099,8.1446-.8453,6.1545-2.4704,12.2926-4.9817,18.9908-6.5241-4.3957,3.2552-8.9316,6.3409-13.1411,9.8212-3.1582,2.6111-8.0039,5.159-7.18,9.5955,.8806,4.7418,6.716,2.623,10.3105,4.2788-3.576,1.6386-9.3693-.5514-10.3221,4.1081-.9165,4.482,4.1067,6.8147,7.073,9.6545,3.6153,3.461,8.5595,5.3708,13.0347,11.1502-6.273-2.7344-10.6378-4.7948-15.1189-6.5601-12.1333-4.78-13.6247-3.6938-11.8617,8.7524-2.5897-2.3729-3.5962-7.3544-7.3732-6.3796-4.0642,1.049-4.216,5.9113-4.7316,9.4303-1.0111,6.9-1.3364,13.9005-1.9455,20.8596-.5456-.0725-1.0913-.1452-1.6369-.2178Z"/>
      <path class="cls-1" d="M44.0636,115.2484c.5456,.0726,1.0913,.1453,1.6369,.2178v13.4798c-2.5748-4.4533-2.5578-9.0407-1.6369-13.6976Z"/>
      <path class="cls-1" d="M45.7048,13.4935c-.5465,.0772-1.0929,.1544-1.6393,.2317-1.1423-4.6847-.6158-9.2393,1.6393-13.7252V13.4935Z"/>
      <path class="cls-1" d="M88.9842,39.1295c-.1669,.2951-.3227,.5704-.4785,.8458-.1399-.1432-.4178-.3188-.3933-.4236,.07-.2993,.263-.5699,.4076-.8517,.147,.136,.294,.2721,.4641,.4294Z"/>
      <path class="cls-1" d="M59.3961,38.9272c.1522,.1652,.2846,.3089,.417,.4526-.2797,.1372-.549,.3225-.8446,.3862-.1061,.0229-.2754-.2472-.4159-.3835,.2743-.148,.5485-.296,.8435-.4552Z"/>
    </g>
  </g>
</svg>