<?xml version="1.0" encoding="UTF-8"?>
<svg id="Layer_2" data-name="Layer 2" xmlns="http://www.w3.org/2000/svg" width="112.1666" height="112.1411" viewBox="0 0 112.1666 112.1411">
  <defs>
    <style>
      .cls-1 {
        fill: #231f20;
      }
    </style>
  </defs>
  <g id="Layer_1-2" data-name="Layer 1">
    <g>
      <path class="cls-1" d="M85.0991,25.8933c-5.0378,4.0366-9.8707,8.3695-15.1673,12.032-6.0925,4.2129-9.1629,2.8867-10.7755-4.31-1.7808-7.947-1.7425-16.0851-1.971-24.1818V0c-2.4403,3.1872-2.6575,6.3795-1.7146,9.6611-1.1019,7.8295-.1725,15.8332-2.1112,23.5985-1.9231,7.703-4.4489,8.6907-11.239,4.5443-5.5522-3.3905-9.4356-8.9229-15.4016-11.7487-2.1666-2.2839-4.3333-4.5678-6.4999-6.8517,2.2034,2.2355,3.349,5.6982,6.6515,6.7365,1.9605,6.4401,7.994,9.8989,11.2644,15.4319,4.2146,7.1304,3.2734,9.6957-4.6711,11.575-8.178,1.9346-16.5806,.8975-24.8035,2.1066-2.908-.7342-5.8308-1.56-8.6604,1.236,3.1218,.9846,5.7865,.869,8.4656,.4096,7.4065,.3891,14.8333,.1821,22.2112,1.3631,11.3844,1.8224,12.7475,4.911,5.7235,14.2775-3.1854,4.2478-6.7131,8.2392-10.0856,12.3468-.2987,.4093-.5974,.8186-.8962,1.2278,.5877,.0264,1.1755,.0528,1.7632,.0791,5.1856-4.2002,10.128-8.7568,15.6216-12.5059,6.1489-4.1962,8.649-2.8191,10.5163,4.5415,1.8367,7.2398,1.0535,14.6989,2.0646,22.0006-.6666,3.8808-1.3531,7.7643,1.4741,12.1115,.8008-4.5817,.8482-8.2377,.3418-11.9089,.2267-7.4455,.3095-14.9236,1.8927-22.2298,1.5734-7.2613,4.7671-8.8074,10.6974-4.4229,8.7147,6.4432,16.8976,13.6052,22.9014,18.4998-5.0072-6.1298-12.9969-13.8926-18.9847-23.2418-3.6712-5.7322-2.5282-8.2338,4.0683-10.0058,6.5717-1.7655,13.3624-1.7243,20.1011-2.0343,4.8025,.3641,9.5978,.6329,14.2902-.9817-4.749-1.8893-9.5852-1.7412-14.4578-1.051-6.0088-.5668-12.0836-.7548-18.0109-1.7886-9.0167-1.5726-10.2092-4.6067-4.8253-12.1548,3.4963-4.9017,7.6209-9.3553,11.4609-14.0101,.0116-.6057,.2677-1.5481-.0127-1.7516-.7359-.5339-.9919,.2612-1.2216,.8337ZM16.9083,15.8371l-.6079-.19,.6125-.1849-.0046,.3749Z"/>
      <path class="cls-1" d="M8.6604,55.0535c8.2229-1.2091,16.6255-.172,24.8035-2.1066,7.9445-1.8794,8.8857-4.4446,4.6711-11.575-3.2704-5.533-9.3039-8.9918-11.2644-15.4319l-.1396,.1051c5.954,2.8359,9.8374,8.3683,15.3896,11.7588,6.7901,4.1464,9.3159,3.1587,11.239-4.5443,1.9387-7.7653,1.0093-15.769,2.1111-23.5986,.5715-.0759,1.1431-.1517,1.7147-.2275,.2285,8.0967,.1902,16.2348,1.971,24.1818,1.6126,7.1967,4.683,8.5229,10.7755,4.31,5.2966-3.6626,10.1295-7.9954,15.1673-12.032,.4124,.3061,.8249,.6122,1.2374,.9184-3.8431,4.6543-7.9677,9.108-11.464,14.0096-5.3839,7.548-4.1913,10.5822,4.8253,12.1548,5.9273,1.0337,12.0021,1.2218,18.0108,1.7886,.0559,.6775,.1118,1.3551,.1677,2.0326-6.7387,.31-13.5294,.2688-20.1011,2.0343-6.5964,1.7721-7.7395,4.2737-4.0683,10.0058,5.9878,9.3492,13.9776,17.112,18.9847,23.2418-6.0038-4.8946-14.1867-12.0566-22.9014-18.4998-5.9303-4.3846-9.124-2.8384-10.6974,4.4229-1.5832,7.3062-1.6659,14.7844-1.8927,22.2299-.6053-.0675-1.2106-.135-1.8159-.2026-1.0112-7.3017-.2279-14.7607-2.0646-22.0005-1.8673-7.3606-4.3674-8.7377-10.5163-4.5415-5.4936,3.7491-10.436,8.3056-15.6216,12.5059-.289-.4356-.578-.8713-.867-1.3069,3.3724-4.1077,6.9001-8.099,10.0856-12.3468,7.024-9.3666,5.6609-12.4552-5.7235-14.2775-7.3779-1.181-14.8047-.974-22.2113-1.3631,.0649-.5485,.1299-1.097,.1948-1.6456Z"/>
      <path class="cls-1" d="M97.8764,56.7973c-.0559-.6776-.1118-1.3551-.1677-2.0326,4.8727-.6902,9.7089-.8383,14.4579,1.051-4.6923,1.6146-9.4877,1.3458-14.2902,.9817Z"/>
      <path class="cls-1" d="M26.8706,25.94c-3.3026-1.0383-4.4482-4.501-6.6515-6.7365,2.1666,2.2839,4.3333,4.5678,6.5059,6.8466,.006-.005,.1456-.1101,.1456-.1101Z"/>
      <path class="cls-1" d="M55.3844,100.0296c.6053,.0676,1.2106,.1352,1.8159,.2026,.5064,3.6712,.4589,7.3272-.3418,11.9089-2.8272-4.3472-2.1407-8.2307-1.4741-12.1115Z"/>
      <path class="cls-1" d="M57.1853,9.4336c-.5716,.0758-1.1432,.1516-1.7147,.2275-.9428-3.2816-.7256-6.4739,1.7147-9.6611V9.4336Z"/>
      <path class="cls-1" d="M8.6604,55.0535c-.065,.5485-.1299,1.097-.1948,1.6456-2.6791,.4594-5.3438,.575-8.4656-.4096,2.8296-2.796,5.7524-1.9702,8.6604-1.236Z"/>
      <polygon class="cls-1" points="16.9083 15.8371 16.9129 15.4622 16.3003 15.6471 16.9083 15.8371"/>
      <path class="cls-1" d="M27.1819,85.9935c-.5877-.0263-1.1755-.0527-1.7632-.0791,.2987-.4093,.5974-.8186,.8962-1.2278,.289,.4356,.578,.8713,.867,1.3069Z"/>
      <path class="cls-1" d="M85.0991,25.8933c.2297-.5724,.4857-1.3675,1.2216-.8337,.2803,.2035,.0243,1.146,.0142,1.7518-.4109-.3059-.8234-.612-1.2358-.9181Z"/>
    </g>
  </g>
</svg>