<?xml version="1.0" standalone="no"?>
<!DOCTYPE svg PUBLIC "-//W3C//DTD SVG 20010904//EN"
 "http://www.w3.org/TR/2001/REC-SVG-20010904/DTD/svg10.dtd">
<svg version="1.0" xmlns="http://www.w3.org/2000/svg"
 width="367.000000pt" height="385.000000pt" viewBox="0 0 367.000000 385.000000"
 preserveAspectRatio="xMidYMid meet">
<metadata>
Created by potrace 1.16, written by Peter Selinger 2001-2019
</metadata>
<g transform="translate(0.000000,385.000000) scale(0.100000,-0.100000)"
fill="#000000" stroke="none">
<path d="M243 3826 c-93 -30 -159 -84 -190 -156 -17 -40 -31 -119 -38 -212
l-7 -87 26 -7 c62 -15 270 36 324 80 15 12 56 43 92 68 112 80 210 195 210
247 0 15 -14 23 -57 36 -32 9 -67 22 -78 28 -31 17 -232 19 -282 3z"/>
<path d="M2355 3831 c-110 -31 -110 -31 -113 -93 -6 -122 71 -259 182 -321 54
-30 119 -56 181 -72 69 -18 213 -37 225 -30 26 16 -7 286 -45 370 -19 43 -71
89 -135 121 -48 24 -69 28 -160 30 -58 2 -118 -1 -135 -5z"/>
<path d="M2145 3762 c-58 -23 -165 -81 -205 -111 -19 -15 -46 -34 -60 -43 -68
-46 -220 -211 -220 -240 0 -8 -5 -19 -12 -26 -8 -8 -8 -15 -1 -24 17 -21 40
-157 49 -292 6 -85 -5 -192 -26 -259 -7 -22 -4 -37 11 -64 57 -102 139 -192
232 -255 89 -60 233 -132 328 -162 79 -26 97 -28 200 -24 121 4 155 15 203 63
32 32 91 132 100 170 4 17 12 50 18 75 6 25 12 119 14 209 1 91 7 174 13 185
10 22 17 55 30 151 5 33 12 81 16 108 l7 47 -43 0 c-117 0 -303 50 -397 107
-96 59 -130 90 -153 141 -11 26 -27 60 -35 76 -8 17 -14 60 -14 102 0 40 -3
75 -7 77 -5 3 -26 -2 -48 -11z"/>
<path d="M684 3694 c-33 -68 -185 -222 -268 -272 -102 -62 -267 -112 -370
-112 l-37 0 7 -107 c4 -60 11 -116 15 -125 5 -9 9 -31 9 -48 0 -18 9 -49 21
-70 18 -31 19 -42 10 -75 -13 -48 -8 -55 37 -55 58 -1 148 -26 197 -55 25 -14
78 -63 118 -109 103 -119 134 -188 154 -344 6 -53 8 -53 168 22 199 93 337
210 415 350 20 36 21 43 8 85 -17 60 -17 416 0 433 7 7 12 27 12 44 0 18 5 36
10 39 46 28 -68 191 -210 298 -30 23 -57 44 -60 47 -29 29 -173 110 -195 110
-8 0 -26 -25 -41 -56z"/>
<path d="M1334 3329 c-87 -25 -114 -100 -114 -318 0 -141 3 -165 33 -228 16
-35 76 -53 175 -53 105 1 149 19 174 70 23 47 26 388 4 441 -18 44 -54 77 -97
89 -41 12 -133 12 -175 -1z"/>
<path d="M64 2713 c14 -141 19 -174 27 -179 5 -3 9 -14 9 -25 0 -42 62 -149
109 -189 57 -49 113 -63 236 -58 l90 3 3 30 c2 16 -1 48 -8 70 -28 98 -32 112
-45 140 -22 48 -106 146 -160 187 -65 50 -142 78 -212 78 l-55 0 6 -57z"/>
<path d="M1212 2618 c-26 -28 -81 -85 -122 -127 l-74 -76 -7 -79 c-13 -146
-100 -271 -230 -333 -36 -17 -91 -34 -121 -38 -64 -8 -69 -11 -87 -50 -7 -16
-17 -38 -22 -47 -5 -10 -9 -27 -9 -37 0 -11 -4 -23 -10 -26 -5 -3 -10 -17 -10
-30 0 -13 -4 -26 -9 -29 -13 -9 -23 -120 -12 -148 5 -14 25 -40 43 -57 32 -30
53 -42 210 -116 l78 -36 32 37 c18 20 35 40 38 44 10 13 116 87 160 111 63 35
146 67 206 79 l52 11 6 87 c6 93 21 281 37 477 17 214 22 386 10 398 -12 12
-79 37 -99 37 -7 0 -34 -23 -60 -52z"/>
<path d="M1523 2657 c-17 -7 -35 -15 -39 -19 -4 -4 -6 -96 -5 -205 l2 -197 51
-52 c27 -28 61 -70 75 -93 28 -48 53 -136 53 -191 0 -76 -49 -219 -101 -291
-20 -28 -21 -34 -8 -71 13 -40 41 -68 69 -68 9 0 61 23 116 51 188 97 249 126
289 139 103 31 173 63 185 85 7 13 10 39 7 61 -14 88 -20 114 -28 120 -5 3 -9
13 -9 22 0 10 -10 44 -23 76 -21 56 -24 59 -62 63 -55 6 -150 59 -194 109 -51
58 -101 162 -101 212 0 18 -16 43 -45 75 -25 26 -57 65 -72 85 -15 20 -30 39
-33 42 -3 3 -13 17 -23 33 -19 30 -49 34 -104 14z"/>
<path d="M960 2382 c0 -13 -70 -58 -165 -108 -85 -44 -80 -37 -144 -174 -37
-77 -38 -90 -9 -90 58 0 162 55 224 118 72 74 138 236 104 257 -5 3 -10 2 -10
-3z"/>
<path d="M1840 2384 c0 -21 62 -125 96 -160 59 -60 184 -115 184 -81 0 9 -4
19 -10 22 -5 3 -10 16 -10 28 -1 31 -38 68 -102 100 -31 16 -74 44 -96 63 -37
31 -62 43 -62 28z"/>
<path d="M1496 2048 c3 -57 10 -125 15 -151 5 -26 9 -78 9 -115 0 -115 16
-141 46 -74 68 154 71 215 17 340 -16 36 -70 102 -84 102 -5 0 -7 -44 -3 -102z"/>
<path d="M1235 1600 c-11 -4 -51 -20 -90 -35 -38 -14 -94 -42 -124 -61 -62
-41 -141 -118 -141 -137 0 -18 126 -91 233 -137 131 -55 160 -8 183 303 6 76
6 77 -17 76 -13 0 -33 -4 -44 -9z"/>
</g>
</svg>
