<?xml version="1.0" standalone="no"?>
<!DOCTYPE svg PUBLIC "-//W3C//DTD SVG 20010904//EN"
 "http://www.w3.org/TR/2001/REC-SVG-20010904/DTD/svg10.dtd">
<svg version="1.0" xmlns="http://www.w3.org/2000/svg"
 width="296.000000pt" height="276.000000pt" viewBox="0 0 296.000000 276.000000"
 preserveAspectRatio="xMidYMid meet">
<metadata>
Created by potrace 1.16, written by Peter Selinger 2001-2019
</metadata>
<g transform="translate(0.000000,276.000000) scale(0.100000,-0.100000)"
fill="#000000" stroke="none">
<path d="M1090 2735 c-108 -31 -203 -89 -266 -163 -44 -51 -84 -124 -84 -153
0 -10 -4 -21 -10 -24 -6 -4 -10 -62 -10 -141 0 -74 -3 -134 -8 -134 -4 0 -23
10 -42 23 -44 29 -103 53 -155 61 -56 10 -165 -9 -229 -40 -109 -51 -221 -195
-248 -318 -27 -122 -31 -167 -20 -238 28 -182 58 -240 160 -311 65 -44 104
-57 200 -64 73 -6 88 -17 58 -42 -22 -18 -71 -129 -85 -191 -14 -58 -10 -171
6 -230 44 -155 170 -274 358 -335 76 -25 185 -10 285 38 57 28 153 117 174
162 9 19 20 37 25 40 5 3 23 -20 40 -50 80 -142 296 -234 447 -190 102 29 209
91 260 151 49 57 94 136 94 165 0 10 4 21 10 24 13 8 13 232 0 240 -5 3 -10
15 -10 26 0 10 -4 27 -9 37 -5 9 -19 38 -31 65 -13 26 -27 47 -32 47 -4 0 -8
9 -8 20 0 17 7 20 48 20 90 0 198 41 266 101 51 44 106 161 106 225 0 27 5 55
11 61 16 16 5 114 -29 244 -19 75 -67 155 -127 214 -109 108 -224 150 -351
126 -65 -12 -156 -50 -169 -71 -3 -5 -12 -10 -18 -10 -9 0 -12 37 -13 131 -1
72 -6 140 -11 152 -55 125 -101 189 -171 240 -133 95 -284 129 -412 92z m221
-811 c95 -33 147 -84 198 -197 29 -62 31 -76 31 -175 0 -91 -3 -111 -20 -132
-11 -14 -20 -30 -20 -36 0 -28 -94 -115 -158 -146 -58 -29 -76 -33 -142 -32
-89 1 -147 24 -227 91 -37 31 -62 63 -83 107 -26 56 -30 75 -30 150 0 47 4 94
9 104 5 9 13 28 19 42 32 78 48 107 84 146 84 91 216 121 339 78z"/>
<path d="M1130 1662 c-59 -60 -45 -168 26 -198 53 -22 97 -11 134 34 43 52 37
103 -19 165 -35 39 -101 39 -141 -1z"/>
</g>
</svg>
