<?xml version="1.0" standalone="no"?>
<!DOCTYPE svg PUBLIC "-//W3C//DTD SVG 20010904//EN"
 "http://www.w3.org/TR/2001/REC-SVG-20010904/DTD/svg10.dtd">
<svg version="1.0" xmlns="http://www.w3.org/2000/svg"
 width="319.000000pt" height="326.000000pt" viewBox="0 0 319.000000 326.000000"
 preserveAspectRatio="xMidYMid meet">
<metadata>
Created by potrace 1.16, written by Peter Selinger 2001-2019
</metadata>
<g transform="translate(0.000000,326.000000) scale(0.100000,-0.100000)"
fill="#000000" stroke="none">
<path d="M1249 3223 c-74 -43 -259 -237 -259 -271 0 -5 -7 -15 -15 -22 -19
-15 -65 -98 -65 -116 0 -8 -4 -22 -9 -32 -30 -59 -47 -133 -57 -245 l-7 -79
-36 7 c-81 14 -216 17 -275 5 -73 -15 -165 -63 -261 -135 -38 -28 -83 -61
-100 -71 -16 -11 -38 -27 -47 -36 -10 -10 -23 -18 -29 -18 -20 0 -79 -52 -79
-70 0 -10 26 -47 58 -83 31 -36 82 -98 112 -138 98 -129 279 -278 364 -299 63
-17 66 -18 66 -35 0 -9 -7 -29 -15 -45 -57 -110 -98 -378 -76 -501 6 -36 11
-99 11 -141 0 -41 2 -77 5 -80 6 -6 73 5 175 27 36 7 94 19 130 26 157 30 359
126 413 195 22 28 39 30 58 8 7 -9 40 -34 74 -57 33 -22 62 -44 65 -48 14 -20
184 -79 285 -99 33 -6 78 -16 100 -20 124 -27 177 -34 193 -23 14 8 18 34 23
139 8 146 0 352 -12 360 -5 3 -9 21 -9 40 0 19 -4 42 -9 52 -5 9 -15 37 -22
62 -7 25 -21 60 -32 79 -10 18 -17 35 -15 36 2 2 35 12 74 24 69 20 146 74
264 184 29 27 190 218 264 314 23 30 15 48 -30 72 -37 20 -207 132 -214 141
-11 14 -98 69 -155 98 -82 41 -165 56 -272 49 -48 -4 -102 -9 -120 -13 l-31
-6 -5 68 c-3 38 -10 92 -16 119 -6 28 -13 65 -17 83 -3 18 -10 35 -15 38 -5 3
-9 14 -9 24 0 22 -37 87 -109 193 -48 70 -160 186 -232 239 l-36 27 -44 -26z
m124 -305 c93 -99 162 -207 186 -288 7 -25 17 -52 21 -61 5 -9 12 -69 16 -133
3 -64 9 -116 11 -116 2 0 27 7 54 16 38 13 75 15 162 12 62 -3 123 -10 137
-16 14 -5 52 -20 85 -33 72 -27 229 -117 268 -155 23 -21 28 -32 23 -56 -5
-27 -91 -143 -146 -198 -85 -85 -235 -161 -338 -173 -24 -3 -46 -8 -49 -10 -2
-3 3 -23 12 -44 26 -59 30 -71 63 -178 41 -134 52 -193 52 -276 0 -159 -36
-201 -158 -179 -65 11 -125 32 -205 71 -22 11 -43 19 -49 19 -5 0 -24 10 -41
23 -18 12 -42 27 -55 34 -13 7 -48 33 -78 59 l-55 47 -37 -31 c-163 -139 -471
-263 -547 -222 -43 23 -55 62 -55 183 0 61 4 124 9 141 5 17 15 51 22 76 23
88 72 226 82 237 4 3 7 14 7 24 0 13 -10 20 -37 24 -131 21 -242 77 -342 173
-45 43 -81 82 -81 88 0 6 -11 21 -25 34 -27 25 -55 74 -55 95 0 14 78 81 124
105 17 10 56 31 86 48 30 17 89 43 130 59 69 26 87 28 211 28 100 0 140 -4
152 -14 36 -29 45 -8 52 123 4 70 11 129 16 132 5 3 9 14 9 24 0 21 62 145
102 204 15 21 54 68 88 103 80 83 95 83 173 1z"/>
<path d="M1257 2878 c-23 -18 -123 -156 -142 -195 -15 -32 -30 -68 -54 -126
-6 -15 -11 -48 -11 -72 0 -24 -4 -47 -10 -50 -13 -8 -13 -141 1 -166 8 -15 7
-24 -2 -36 -15 -18 -50 -14 -133 17 -136 49 -266 36 -416 -43 -128 -67 -173
-103 -164 -131 18 -56 186 -200 290 -247 47 -22 96 -34 161 -42 111 -13 119
-23 79 -104 -14 -28 -26 -55 -26 -59 0 -5 -9 -20 -20 -34 -11 -14 -20 -35 -20
-47 0 -12 -4 -24 -9 -27 -10 -6 -14 -25 -35 -176 -22 -151 -21 -195 5 -221 16
-16 28 -20 55 -14 146 27 334 127 406 216 83 103 73 95 92 73 10 -10 32 -38
49 -61 58 -75 172 -149 303 -196 109 -39 148 -43 175 -16 19 19 21 28 15 88
-21 214 -43 297 -118 447 -22 45 -38 90 -36 100 3 15 21 20 105 31 158 20 262
77 401 222 67 70 67 88 0 133 -77 50 -215 114 -276 127 -95 20 -225 6 -299
-32 -37 -20 -69 -22 -79 -5 -4 6 -9 74 -11 150 -3 138 -4 140 -44 226 -46 101
-42 94 -93 169 -75 110 -101 129 -139 101z m63 -834 c64 -13 92 -108 47 -160
-18 -20 -35 -28 -73 -31 -44 -5 -52 -2 -77 22 -49 50 -31 139 33 164 32 12 31
12 70 5z"/>
</g>
</svg>
