<?xml version="1.0" standalone="no"?>
<!DOCTYPE svg PUBLIC "-//W3C//DTD SVG 20010904//EN"
 "http://www.w3.org/TR/2001/REC-SVG-20010904/DTD/svg10.dtd">
<svg version="1.0" xmlns="http://www.w3.org/2000/svg"
 width="345.000000pt" height="378.000000pt" viewBox="0 0 345.000000 378.000000"
 preserveAspectRatio="xMidYMid meet">
<metadata>
Created by potrace 1.16, written by Peter Selinger 2001-2019
</metadata>
<g transform="translate(0.000000,378.000000) scale(0.100000,-0.100000)"
fill="#000000" stroke="none">
<path d="M645 3747 c-106 -59 -218 -159 -213 -191 3 -24 69 -53 198 -88 64
-17 83 -19 93 -9 19 19 12 254 -9 286 -20 30 -19 30 -69 2z"/>
<path d="M2005 3762 c-25 -18 -35 -68 -35 -176 0 -129 7 -143 62 -131 35 8
163 48 211 67 39 15 37 56 -6 94 -65 58 -200 154 -217 154 -3 0 -10 -4 -15 -8z"/>
<path d="M1314 3728 c-36 -39 -146 -213 -186 -293 -8 -16 -32 -61 -53 -100
-21 -38 -58 -108 -82 -155 l-44 -86 -87 -13 c-168 -25 -368 -85 -509 -151 -96
-45 -101 -57 -46 -129 6 -9 42 -57 80 -107 88 -118 152 -195 271 -324 32 -34
33 -37 28 -110 -2 -41 -9 -102 -15 -135 -19 -105 -32 -255 -38 -426 l-5 -166
27 -21 c34 -27 49 -24 180 39 93 45 357 218 456 300 67 54 67 54 102 21 79
-76 414 -297 516 -340 79 -34 118 -39 142 -19 27 21 42 91 35 154 -4 32 -12
114 -17 183 -13 157 -23 242 -43 350 -9 47 -16 94 -16 106 0 12 35 61 83 116
171 197 190 220 263 318 85 114 91 140 42 170 -92 56 -374 143 -557 171 -80
13 -84 14 -107 51 -13 21 -24 41 -24 46 0 18 -144 291 -181 344 -11 14 -19 30
-19 35 -1 4 -29 49 -63 98 -70 100 -96 114 -133 73z"/>
<path d="M25 2240 c-9 -15 19 -109 75 -245 5 -11 14 -35 22 -52 23 -57 56 -39
127 65 52 78 81 129 81 147 0 8 -11 22 -24 30 -54 36 -267 77 -281 55z"/>
<path d="M2571 2239 c-81 -14 -158 -38 -183 -59 -21 -17 -22 -20 -8 -46 48
-95 149 -224 175 -224 13 0 31 33 60 110 10 25 26 64 36 87 10 24 19 50 19 58
0 8 5 24 12 34 9 15 9 23 -1 35 -15 17 -29 18 -110 5z"/>
<path d="M1325 1467 c-63 -85 -135 -204 -133 -221 3 -20 10 -21 161 -24 l157
-3 0 25 c0 27 -22 70 -73 146 -59 88 -89 108 -112 77z"/>
</g>
</svg>
