<?xml version="1.0" standalone="no"?>
<!DOCTYPE svg PUBLIC "-//W3C//DTD SVG 20010904//EN"
 "http://www.w3.org/TR/2001/REC-SVG-20010904/DTD/svg10.dtd">
<svg version="1.0" xmlns="http://www.w3.org/2000/svg"
 width="244.000000pt" height="270.000000pt" viewBox="0 0 244.000000 270.000000"
 preserveAspectRatio="xMidYMid meet">
<metadata>
Created by potrace 1.16, written by Peter Selinger 2001-2019
</metadata>
<g transform="translate(0.000000,270.000000) scale(0.100000,-0.100000)"
fill="#000000" stroke="none">
<path d="M1180 2674 c-106 -18 -197 -66 -282 -150 -71 -70 -128 -176 -128
-238 0 -40 3 -45 33 -57 55 -24 284 -18 384 10 149 42 305 152 354 250 7 14
21 38 31 53 10 14 18 35 18 45 0 20 -31 53 -65 70 -49 25 -241 34 -345 17z"/>
<path d="M620 2360 c-17 -17 -19 -28 -14 -63 4 -23 11 -52 15 -65 19 -51 12
-68 -38 -86 -85 -31 -137 -60 -176 -99 -47 -47 -117 -153 -117 -178 0 -10 -4
-20 -9 -23 -24 -15 -40 -310 -20 -359 12 -30 11 -32 -37 -76 -55 -50 -134
-151 -134 -170 0 -6 -6 -22 -14 -34 -38 -57 -75 -281 -62 -369 27 -183 53
-250 137 -348 77 -89 211 -168 359 -212 105 -31 274 -30 380 1 93 26 205 80
264 125 54 41 156 153 156 171 0 7 8 30 19 52 30 62 39 103 46 198 9 133 -13
303 -46 363 -11 18 -19 37 -19 43 0 20 -64 104 -124 163 l-59 59 11 44 c21 78
10 269 -19 325 -5 10 -9 25 -9 34 0 9 -8 28 -18 42 -10 15 -24 40 -32 57 -8
16 -40 54 -70 85 -51 50 -74 64 -180 107 -57 23 -65 29 -74 59 -4 16 -12 37
-17 46 -5 10 -9 26 -9 37 0 36 -37 90 -62 91 -5 0 -17 -9 -28 -20z"/>
</g>
</svg>
