<?xml version="1.0" standalone="no"?>
<!DOCTYPE svg PUBLIC "-//W3C//DTD SVG 20010904//EN"
 "http://www.w3.org/TR/2001/REC-SVG-20010904/DTD/svg10.dtd">
<svg version="1.0" xmlns="http://www.w3.org/2000/svg"
 width="300.000000pt" height="327.000000pt" viewBox="0 0 300.000000 327.000000"
 preserveAspectRatio="xMidYMid meet">
<metadata>
Created by potrace 1.16, written by Peter Selinger 2001-2019
</metadata>
<g transform="translate(0.000000,327.000000) scale(0.100000,-0.100000)"
fill="#000000" stroke="none">
<path d="M1076 3242 c-12 -20 -26 -207 -36 -487 -6 -165 -13 -320 -15 -345 -2
-25 -7 -130 -11 -235 -8 -240 -20 -264 -100 -215 -52 33 -169 49 -279 38 -223
-20 -443 -158 -527 -330 -44 -88 -74 -181 -87 -267 -8 -52 -7 -82 8 -160 40
-203 102 -281 277 -352 71 -28 93 -32 209 -36 142 -6 203 4 325 55 76 31 197
125 239 185 66 97 112 214 125 322 7 49 -12 203 -33 283 -8 28 -8 97 0 238 6
110 13 317 16 462 4 210 8 265 19 269 33 12 157 -93 239 -202 145 -193 164
-453 50 -679 -24 -50 -43 -92 -41 -94 3 -2 39 14 82 35 149 74 249 198 305
382 17 53 35 111 40 129 6 18 11 99 11 180 0 132 -3 159 -31 267 -41 159 -87
246 -184 350 -109 117 -210 172 -372 201 -88 15 -221 19 -229 6z"/>
</g>
</svg>
